G04 #@! TF.GenerationSoftware,KiCad,Pcbnew,(5.1.4)-1*
G04 #@! TF.CreationDate,2021-03-16T12:48:33+01:00*
G04 #@! TF.ProjectId,ISP_Adapter_V10,4953505f-4164-4617-9074-65725f563130,rev?*
G04 #@! TF.SameCoordinates,Original*
G04 #@! TF.FileFunction,Copper,L2,Bot*
G04 #@! TF.FilePolarity,Positive*
%FSLAX46Y46*%
G04 Gerber Fmt 4.6, Leading zero omitted, Abs format (unit mm)*
G04 Created by KiCad (PCBNEW (5.1.4)-1) date 2021-03-16 12:48:33*
%MOMM*%
%LPD*%
G04 APERTURE LIST*
%ADD10C,0.250000*%
%ADD11R,1.727200X1.727200*%
%ADD12O,1.727200X1.727200*%
%ADD13R,1.700000X1.700000*%
%ADD14O,1.700000X1.700000*%
%ADD15C,1.400000*%
%ADD16R,1.400000X1.400000*%
%ADD17C,0.800000*%
%ADD18C,0.300000*%
%ADD19C,0.254000*%
G04 APERTURE END LIST*
D10*
X138905809Y-72969380D02*
X139477238Y-72969380D01*
X139191523Y-72969380D02*
X139191523Y-71969380D01*
X139286761Y-72112238D01*
X139382000Y-72207476D01*
X139477238Y-72255095D01*
X138048666Y-71969380D02*
X138239142Y-71969380D01*
X138334380Y-72017000D01*
X138382000Y-72064619D01*
X138477238Y-72207476D01*
X138524857Y-72397952D01*
X138524857Y-72778904D01*
X138477238Y-72874142D01*
X138429619Y-72921761D01*
X138334380Y-72969380D01*
X138143904Y-72969380D01*
X138048666Y-72921761D01*
X138001047Y-72874142D01*
X137953428Y-72778904D01*
X137953428Y-72540809D01*
X138001047Y-72445571D01*
X138048666Y-72397952D01*
X138143904Y-72350333D01*
X138334380Y-72350333D01*
X138429619Y-72397952D01*
X138477238Y-72445571D01*
X138524857Y-72540809D01*
X137524857Y-72874142D02*
X137477238Y-72921761D01*
X137524857Y-72969380D01*
X137572476Y-72921761D01*
X137524857Y-72874142D01*
X137524857Y-72969380D01*
X136858190Y-71969380D02*
X136762952Y-71969380D01*
X136667714Y-72017000D01*
X136620095Y-72064619D01*
X136572476Y-72159857D01*
X136524857Y-72350333D01*
X136524857Y-72588428D01*
X136572476Y-72778904D01*
X136620095Y-72874142D01*
X136667714Y-72921761D01*
X136762952Y-72969380D01*
X136858190Y-72969380D01*
X136953428Y-72921761D01*
X137001047Y-72874142D01*
X137048666Y-72778904D01*
X137096285Y-72588428D01*
X137096285Y-72350333D01*
X137048666Y-72159857D01*
X137001047Y-72064619D01*
X136953428Y-72017000D01*
X136858190Y-71969380D01*
X136191523Y-71969380D02*
X135572476Y-71969380D01*
X135905809Y-72350333D01*
X135762952Y-72350333D01*
X135667714Y-72397952D01*
X135620095Y-72445571D01*
X135572476Y-72540809D01*
X135572476Y-72778904D01*
X135620095Y-72874142D01*
X135667714Y-72921761D01*
X135762952Y-72969380D01*
X136048666Y-72969380D01*
X136143904Y-72921761D01*
X136191523Y-72874142D01*
X135143904Y-72874142D02*
X135096285Y-72921761D01*
X135143904Y-72969380D01*
X135191523Y-72921761D01*
X135143904Y-72874142D01*
X135143904Y-72969380D01*
X134715333Y-72064619D02*
X134667714Y-72017000D01*
X134572476Y-71969380D01*
X134334380Y-71969380D01*
X134239142Y-72017000D01*
X134191523Y-72064619D01*
X134143904Y-72159857D01*
X134143904Y-72255095D01*
X134191523Y-72397952D01*
X134762952Y-72969380D01*
X134143904Y-72969380D01*
X133524857Y-71969380D02*
X133429619Y-71969380D01*
X133334380Y-72017000D01*
X133286761Y-72064619D01*
X133239142Y-72159857D01*
X133191523Y-72350333D01*
X133191523Y-72588428D01*
X133239142Y-72778904D01*
X133286761Y-72874142D01*
X133334380Y-72921761D01*
X133429619Y-72969380D01*
X133524857Y-72969380D01*
X133620095Y-72921761D01*
X133667714Y-72874142D01*
X133715333Y-72778904D01*
X133762952Y-72588428D01*
X133762952Y-72350333D01*
X133715333Y-72159857D01*
X133667714Y-72064619D01*
X133620095Y-72017000D01*
X133524857Y-71969380D01*
X132810571Y-72064619D02*
X132762952Y-72017000D01*
X132667714Y-71969380D01*
X132429619Y-71969380D01*
X132334380Y-72017000D01*
X132286761Y-72064619D01*
X132239142Y-72159857D01*
X132239142Y-72255095D01*
X132286761Y-72397952D01*
X132858190Y-72969380D01*
X132239142Y-72969380D01*
X131286761Y-72969380D02*
X131858190Y-72969380D01*
X131572476Y-72969380D02*
X131572476Y-71969380D01*
X131667714Y-72112238D01*
X131762952Y-72207476D01*
X131858190Y-72255095D01*
X185871666Y-72969380D02*
X185871666Y-71969380D01*
X185443095Y-72921761D02*
X185300238Y-72969380D01*
X185062142Y-72969380D01*
X184966904Y-72921761D01*
X184919285Y-72874142D01*
X184871666Y-72778904D01*
X184871666Y-72683666D01*
X184919285Y-72588428D01*
X184966904Y-72540809D01*
X185062142Y-72493190D01*
X185252619Y-72445571D01*
X185347857Y-72397952D01*
X185395476Y-72350333D01*
X185443095Y-72255095D01*
X185443095Y-72159857D01*
X185395476Y-72064619D01*
X185347857Y-72017000D01*
X185252619Y-71969380D01*
X185014523Y-71969380D01*
X184871666Y-72017000D01*
X184443095Y-72969380D02*
X184443095Y-71969380D01*
X184062142Y-71969380D01*
X183966904Y-72017000D01*
X183919285Y-72064619D01*
X183871666Y-72159857D01*
X183871666Y-72302714D01*
X183919285Y-72397952D01*
X183966904Y-72445571D01*
X184062142Y-72493190D01*
X184443095Y-72493190D01*
X183681190Y-73064619D02*
X182919285Y-73064619D01*
X182728809Y-72683666D02*
X182252619Y-72683666D01*
X182824047Y-72969380D02*
X182490714Y-71969380D01*
X182157380Y-72969380D01*
X181395476Y-72969380D02*
X181395476Y-71969380D01*
X181395476Y-72921761D02*
X181490714Y-72969380D01*
X181681190Y-72969380D01*
X181776428Y-72921761D01*
X181824047Y-72874142D01*
X181871666Y-72778904D01*
X181871666Y-72493190D01*
X181824047Y-72397952D01*
X181776428Y-72350333D01*
X181681190Y-72302714D01*
X181490714Y-72302714D01*
X181395476Y-72350333D01*
X180490714Y-72969380D02*
X180490714Y-72445571D01*
X180538333Y-72350333D01*
X180633571Y-72302714D01*
X180824047Y-72302714D01*
X180919285Y-72350333D01*
X180490714Y-72921761D02*
X180585952Y-72969380D01*
X180824047Y-72969380D01*
X180919285Y-72921761D01*
X180966904Y-72826523D01*
X180966904Y-72731285D01*
X180919285Y-72636047D01*
X180824047Y-72588428D01*
X180585952Y-72588428D01*
X180490714Y-72540809D01*
X180014523Y-72302714D02*
X180014523Y-73302714D01*
X180014523Y-72350333D02*
X179919285Y-72302714D01*
X179728809Y-72302714D01*
X179633571Y-72350333D01*
X179585952Y-72397952D01*
X179538333Y-72493190D01*
X179538333Y-72778904D01*
X179585952Y-72874142D01*
X179633571Y-72921761D01*
X179728809Y-72969380D01*
X179919285Y-72969380D01*
X180014523Y-72921761D01*
X179252619Y-72302714D02*
X178871666Y-72302714D01*
X179109761Y-71969380D02*
X179109761Y-72826523D01*
X179062142Y-72921761D01*
X178966904Y-72969380D01*
X178871666Y-72969380D01*
X178157380Y-72921761D02*
X178252619Y-72969380D01*
X178443095Y-72969380D01*
X178538333Y-72921761D01*
X178585952Y-72826523D01*
X178585952Y-72445571D01*
X178538333Y-72350333D01*
X178443095Y-72302714D01*
X178252619Y-72302714D01*
X178157380Y-72350333D01*
X178109761Y-72445571D01*
X178109761Y-72540809D01*
X178585952Y-72636047D01*
X177681190Y-72969380D02*
X177681190Y-72302714D01*
X177681190Y-72493190D02*
X177633571Y-72397952D01*
X177585952Y-72350333D01*
X177490714Y-72302714D01*
X177395476Y-72302714D01*
X177300238Y-73064619D02*
X176538333Y-73064619D01*
X176443095Y-71969380D02*
X176109761Y-72969380D01*
X175776428Y-71969380D01*
X174919285Y-72969380D02*
X175490714Y-72969380D01*
X175205000Y-72969380D02*
X175205000Y-71969380D01*
X175300238Y-72112238D01*
X175395476Y-72207476D01*
X175490714Y-72255095D01*
X174490714Y-72874142D02*
X174443095Y-72921761D01*
X174490714Y-72969380D01*
X174538333Y-72921761D01*
X174490714Y-72874142D01*
X174490714Y-72969380D01*
X173824047Y-71969380D02*
X173728809Y-71969380D01*
X173633571Y-72017000D01*
X173585952Y-72064619D01*
X173538333Y-72159857D01*
X173490714Y-72350333D01*
X173490714Y-72588428D01*
X173538333Y-72778904D01*
X173585952Y-72874142D01*
X173633571Y-72921761D01*
X173728809Y-72969380D01*
X173824047Y-72969380D01*
X173919285Y-72921761D01*
X173966904Y-72874142D01*
X174014523Y-72778904D01*
X174062142Y-72588428D01*
X174062142Y-72350333D01*
X174014523Y-72159857D01*
X173966904Y-72064619D01*
X173919285Y-72017000D01*
X173824047Y-71969380D01*
D11*
X132842000Y-53594000D03*
D12*
X135382000Y-53594000D03*
X132842000Y-56134000D03*
X135382000Y-56134000D03*
X132842000Y-58674000D03*
X135382000Y-58674000D03*
X132842000Y-61214000D03*
X135382000Y-61214000D03*
X132842000Y-63754000D03*
X135382000Y-63754000D03*
D13*
X181356000Y-65024000D03*
D14*
X181356000Y-62484000D03*
X181356000Y-59944000D03*
X181356000Y-57404000D03*
X181356000Y-54864000D03*
X181356000Y-52324000D03*
D15*
X161337000Y-48258000D03*
X158837000Y-48258000D03*
X156337000Y-48258000D03*
X161337000Y-44958000D03*
X158837000Y-44958000D03*
D16*
X156337000Y-44958000D03*
X156464000Y-69342000D03*
D15*
X158964000Y-69342000D03*
X161464000Y-69342000D03*
X156464000Y-72642000D03*
X158964000Y-72642000D03*
X161464000Y-72642000D03*
D17*
X140970000Y-51435000D03*
X147320000Y-51435000D03*
X153670000Y-51435000D03*
X160020000Y-51435000D03*
X166370000Y-51435000D03*
X172720000Y-51435000D03*
X140970000Y-53975000D03*
X147320000Y-53975000D03*
X153670000Y-53975000D03*
X160020000Y-53975000D03*
X166370000Y-53975000D03*
X172720000Y-53975000D03*
X140970000Y-56515000D03*
X147320000Y-56515000D03*
X153670000Y-56515000D03*
X160020000Y-56515000D03*
X166370000Y-56515000D03*
X172720000Y-56515000D03*
X140970000Y-59055000D03*
X153670000Y-59055000D03*
X147320000Y-59055000D03*
X160020000Y-59055000D03*
X166370000Y-59055000D03*
X172720000Y-59055000D03*
X140970000Y-61595000D03*
X147320000Y-61595000D03*
X153670000Y-61595000D03*
X160020000Y-61595000D03*
X166370000Y-61595000D03*
X172720000Y-61595000D03*
X140970000Y-64135000D03*
X160020000Y-64135000D03*
X153670000Y-64135000D03*
X147320000Y-64135000D03*
X166370000Y-64135000D03*
X172720000Y-64135000D03*
X164211000Y-53213000D03*
X166370000Y-50292000D03*
X170827000Y-47879000D03*
X162687000Y-66675000D03*
X171704000Y-66675000D03*
X146177000Y-69342000D03*
X157734000Y-67564000D03*
X145923000Y-45466000D03*
X145161000Y-53213000D03*
X151335500Y-46560500D03*
X135382000Y-50292000D03*
X150749000Y-70993000D03*
X143637000Y-70739000D03*
X166243000Y-70992998D03*
X166418500Y-46560500D03*
X175387000Y-47625000D03*
X175387000Y-69215000D03*
X167386000Y-70993000D03*
X154559000Y-47310500D03*
X157861000Y-55753000D03*
X151511000Y-58293000D03*
X149987000Y-66675000D03*
X174244000Y-69215000D03*
X145034000Y-66675000D03*
X170561000Y-60845000D03*
X146050000Y-60833000D03*
X167386000Y-67945000D03*
X150622000Y-73787000D03*
D18*
X180467000Y-51435000D02*
X181356000Y-52324000D01*
X140970000Y-51435000D02*
X147320000Y-51435000D01*
X147320000Y-51435000D02*
X153670000Y-51435000D01*
X153670000Y-51435000D02*
X160020000Y-51435000D01*
X160020000Y-51435000D02*
X166370000Y-51435000D01*
X166370000Y-51435000D02*
X172720000Y-51435000D01*
X172720000Y-51435000D02*
X180467000Y-51435000D01*
X180467000Y-53975000D02*
X181356000Y-54864000D01*
X140970000Y-53975000D02*
X147320000Y-53975000D01*
X147320000Y-53975000D02*
X153670000Y-53975000D01*
X153670000Y-53975000D02*
X160020000Y-53975000D01*
X160020000Y-53975000D02*
X166370000Y-53975000D01*
X166370000Y-53975000D02*
X172720000Y-53975000D01*
X172720000Y-53975000D02*
X180467000Y-53975000D01*
X180467000Y-56515000D02*
X181356000Y-57404000D01*
X140970000Y-56515000D02*
X147320000Y-56515000D01*
X147320000Y-56515000D02*
X153670000Y-56515000D01*
X153670000Y-56515000D02*
X160020000Y-56515000D01*
X160020000Y-56515000D02*
X166370000Y-56515000D01*
X166370000Y-56515000D02*
X172720000Y-56515000D01*
X172720000Y-56515000D02*
X180467000Y-56515000D01*
X180467000Y-59055000D02*
X181356000Y-59944000D01*
X140970000Y-59055000D02*
X147320000Y-59055000D01*
X147320000Y-59055000D02*
X153670000Y-59055000D01*
X153670000Y-59055000D02*
X160020000Y-59055000D01*
X160020000Y-59055000D02*
X166370000Y-59055000D01*
X166370000Y-59055000D02*
X172720000Y-59055000D01*
X172720000Y-59055000D02*
X180467000Y-59055000D01*
X180467000Y-61595000D02*
X181356000Y-62484000D01*
X140970000Y-61595000D02*
X147320000Y-61595000D01*
X147320000Y-61595000D02*
X153670000Y-61595000D01*
X153670000Y-61595000D02*
X160020000Y-61595000D01*
X160020000Y-61595000D02*
X166370000Y-61595000D01*
X166370000Y-61595000D02*
X172720000Y-61595000D01*
X172720000Y-61595000D02*
X180467000Y-61595000D01*
X180467000Y-64135000D02*
X181356000Y-65024000D01*
X153670000Y-64135000D02*
X160020000Y-64135000D01*
X140970000Y-64135000D02*
X147320000Y-64135000D01*
X147320000Y-64135000D02*
X153670000Y-64135000D01*
X160020000Y-64135000D02*
X166370000Y-64135000D01*
X166370000Y-64135000D02*
X172720000Y-64135000D01*
X172720000Y-64135000D02*
X180467000Y-64135000D01*
X132842000Y-53594000D02*
X132842000Y-52430400D01*
X169672000Y-50292000D02*
X170180000Y-50292000D01*
X166370000Y-50292000D02*
X169672000Y-50292000D01*
X170180000Y-50292000D02*
X170827000Y-49645000D01*
X170827000Y-49645000D02*
X170827000Y-47879000D01*
X162687000Y-66675000D02*
X171704000Y-66675000D01*
X146177000Y-69342000D02*
X147955000Y-67564000D01*
X147955000Y-67564000D02*
X157734000Y-67564000D01*
X145923000Y-45466000D02*
X135382000Y-45466000D01*
X132842000Y-48006000D02*
X132842000Y-53594000D01*
X135382000Y-45466000D02*
X132842000Y-48006000D01*
X146271002Y-53213000D02*
X164211000Y-53213000D01*
X145438401Y-52380399D02*
X146271002Y-53213000D01*
X132842000Y-53594000D02*
X134055601Y-52380399D01*
X134055601Y-52380399D02*
X145438401Y-52380399D01*
X136603314Y-53594000D02*
X135382000Y-53594000D01*
X140240998Y-53594000D02*
X136603314Y-53594000D01*
X140609999Y-53224999D02*
X140240998Y-53594000D01*
X141330001Y-53224999D02*
X140609999Y-53224999D01*
X141342000Y-53213000D02*
X141330001Y-53224999D01*
X145161000Y-53213000D02*
X141342000Y-53213000D01*
X150769815Y-46560500D02*
X150340315Y-46990000D01*
X151335500Y-46560500D02*
X150769815Y-46560500D01*
X150340315Y-46990000D02*
X137160000Y-46990000D01*
X137160000Y-46990000D02*
X135382000Y-48768000D01*
X135382000Y-48768000D02*
X135382000Y-50292000D01*
X143891000Y-70993000D02*
X143637000Y-70739000D01*
X150749000Y-70993000D02*
X143891000Y-70993000D01*
X150749000Y-70993000D02*
X166242998Y-70993000D01*
X166242998Y-70993000D02*
X166243000Y-70992998D01*
X166418500Y-46560500D02*
X174322500Y-46560500D01*
X174322500Y-46560500D02*
X175387000Y-47625000D01*
X140342597Y-64617599D02*
X141637998Y-65913000D01*
X135382000Y-63754000D02*
X136245599Y-64617599D01*
X136245599Y-64617599D02*
X140342597Y-64617599D01*
X141637998Y-65913000D02*
X173990000Y-65913000D01*
X175387000Y-67310000D02*
X175387000Y-69215000D01*
X173990000Y-65913000D02*
X175387000Y-67310000D01*
X175387000Y-69215000D02*
X173658148Y-70943852D01*
X173658148Y-70943852D02*
X167435148Y-70943852D01*
X167435148Y-70943852D02*
X167386000Y-70993000D01*
X166418500Y-46560500D02*
X155309000Y-46560500D01*
X155309000Y-46560500D02*
X154559000Y-47310500D01*
X134055601Y-57460399D02*
X137470399Y-57460399D01*
X132842000Y-58674000D02*
X134055601Y-57460399D01*
X137470399Y-57460399D02*
X139177798Y-55753000D01*
X139177798Y-55753000D02*
X157861000Y-55753000D01*
X134055601Y-60000399D02*
X138246601Y-60000399D01*
X132842000Y-61214000D02*
X134055601Y-60000399D01*
X138246601Y-60000399D02*
X140081000Y-58166000D01*
X140081000Y-58166000D02*
X151384000Y-58166000D01*
X151384000Y-58166000D02*
X151511000Y-58293000D01*
X171113997Y-67194999D02*
X173133998Y-69215000D01*
X167025999Y-67194999D02*
X171113997Y-67194999D01*
X166783998Y-67437000D02*
X167025999Y-67194999D01*
X162338998Y-67437000D02*
X166783998Y-67437000D01*
X149987000Y-66675000D02*
X161576998Y-66675000D01*
X161576998Y-66675000D02*
X162338998Y-67437000D01*
X173133998Y-69215000D02*
X174244000Y-69215000D01*
X145034000Y-66675000D02*
X149987000Y-66675000D01*
X134055601Y-62540399D02*
X137992601Y-62540399D01*
X132842000Y-63754000D02*
X134055601Y-62540399D01*
X137992601Y-62540399D02*
X139700000Y-60833000D01*
X170549000Y-60833000D02*
X170561000Y-60845000D01*
X139700000Y-60833000D02*
X146050000Y-60833000D01*
X146050000Y-60833000D02*
X170549000Y-60833000D01*
X158964000Y-68352051D02*
X159371051Y-67945000D01*
X158964000Y-69342000D02*
X158964000Y-68352051D01*
X159371051Y-67945000D02*
X167386000Y-67945000D01*
X158964000Y-73631949D02*
X158808949Y-73787000D01*
X158964000Y-72642000D02*
X158964000Y-73631949D01*
X158808949Y-73787000D02*
X150622000Y-73787000D01*
D19*
G36*
X188824001Y-74524000D02*
G01*
X159083626Y-74524000D01*
X159110809Y-74515754D01*
X159247182Y-74442862D01*
X159366713Y-74344764D01*
X159391296Y-74314810D01*
X159491810Y-74214296D01*
X159521764Y-74189713D01*
X159619862Y-74070182D01*
X159692754Y-73933809D01*
X159737641Y-73785836D01*
X159743458Y-73726773D01*
X159815013Y-73678962D01*
X160000962Y-73493013D01*
X160147061Y-73274359D01*
X160214000Y-73112754D01*
X160280939Y-73274359D01*
X160427038Y-73493013D01*
X160612987Y-73678962D01*
X160831641Y-73825061D01*
X161074595Y-73925696D01*
X161332514Y-73977000D01*
X161595486Y-73977000D01*
X161853405Y-73925696D01*
X162096359Y-73825061D01*
X162315013Y-73678962D01*
X162500962Y-73493013D01*
X162647061Y-73274359D01*
X162747696Y-73031405D01*
X162799000Y-72773486D01*
X162799000Y-72510514D01*
X162747696Y-72252595D01*
X162647061Y-72009641D01*
X162500962Y-71790987D01*
X162487975Y-71778000D01*
X165564291Y-71778000D01*
X165583226Y-71796935D01*
X165752744Y-71910203D01*
X165941102Y-71988224D01*
X166141061Y-72027998D01*
X166344939Y-72027998D01*
X166544898Y-71988224D01*
X166733256Y-71910203D01*
X166902774Y-71796935D01*
X167046937Y-71652772D01*
X167160205Y-71483254D01*
X167238226Y-71294896D01*
X167277092Y-71099500D01*
X172540238Y-71099500D01*
X172540238Y-74119500D01*
X186869762Y-74119500D01*
X186869762Y-71099500D01*
X172540238Y-71099500D01*
X167277092Y-71099500D01*
X167278000Y-71094937D01*
X167278000Y-70891059D01*
X167238226Y-70691100D01*
X167160205Y-70502742D01*
X167046937Y-70333224D01*
X166902774Y-70189061D01*
X166733256Y-70075793D01*
X166544898Y-69997772D01*
X166344939Y-69957998D01*
X166141061Y-69957998D01*
X165941102Y-69997772D01*
X165752744Y-70075793D01*
X165583226Y-70189061D01*
X165564287Y-70208000D01*
X162485975Y-70208000D01*
X162500962Y-70193013D01*
X162647061Y-69974359D01*
X162747696Y-69731405D01*
X162799000Y-69473486D01*
X162799000Y-69210514D01*
X162747696Y-68952595D01*
X162655494Y-68730000D01*
X166707289Y-68730000D01*
X166726226Y-68748937D01*
X166895744Y-68862205D01*
X167084102Y-68940226D01*
X167284061Y-68980000D01*
X167487939Y-68980000D01*
X167687898Y-68940226D01*
X167876256Y-68862205D01*
X168045774Y-68748937D01*
X168189937Y-68604774D01*
X168303205Y-68435256D01*
X168381226Y-68246898D01*
X168421000Y-68046939D01*
X168421000Y-67979999D01*
X170788840Y-67979999D01*
X172551651Y-69742810D01*
X172576234Y-69772764D01*
X172695765Y-69870862D01*
X172795826Y-69924345D01*
X172832138Y-69943754D01*
X172980111Y-69988642D01*
X173055024Y-69996020D01*
X173095437Y-70000000D01*
X173095442Y-70000000D01*
X173133998Y-70003797D01*
X173172554Y-70000000D01*
X173565289Y-70000000D01*
X173584226Y-70018937D01*
X173753744Y-70132205D01*
X173942102Y-70210226D01*
X174142061Y-70250000D01*
X174345939Y-70250000D01*
X174545898Y-70210226D01*
X174734256Y-70132205D01*
X174903774Y-70018937D01*
X175047937Y-69874774D01*
X175161205Y-69705256D01*
X175239226Y-69516898D01*
X175279000Y-69316939D01*
X175279000Y-69113061D01*
X175239226Y-68913102D01*
X175161205Y-68724744D01*
X175047937Y-68555226D01*
X174903774Y-68411063D01*
X174734256Y-68297795D01*
X174545898Y-68219774D01*
X174345939Y-68180000D01*
X174142061Y-68180000D01*
X173942102Y-68219774D01*
X173753744Y-68297795D01*
X173584226Y-68411063D01*
X173565289Y-68430000D01*
X173459155Y-68430000D01*
X172435933Y-67406778D01*
X172507937Y-67334774D01*
X172621205Y-67165256D01*
X172699226Y-66976898D01*
X172739000Y-66776939D01*
X172739000Y-66573061D01*
X172699226Y-66373102D01*
X172621205Y-66184744D01*
X172507937Y-66015226D01*
X172363774Y-65871063D01*
X172194256Y-65757795D01*
X172005898Y-65679774D01*
X171805939Y-65640000D01*
X171602061Y-65640000D01*
X171402102Y-65679774D01*
X171213744Y-65757795D01*
X171044226Y-65871063D01*
X171025289Y-65890000D01*
X163365711Y-65890000D01*
X163346774Y-65871063D01*
X163177256Y-65757795D01*
X162988898Y-65679774D01*
X162788939Y-65640000D01*
X162585061Y-65640000D01*
X162385102Y-65679774D01*
X162196744Y-65757795D01*
X162027226Y-65871063D01*
X161926551Y-65971738D01*
X161878858Y-65946246D01*
X161730885Y-65901359D01*
X161615559Y-65890000D01*
X161615551Y-65890000D01*
X161576998Y-65886203D01*
X161538445Y-65890000D01*
X150665711Y-65890000D01*
X150646774Y-65871063D01*
X150477256Y-65757795D01*
X150288898Y-65679774D01*
X150088939Y-65640000D01*
X149885061Y-65640000D01*
X149685102Y-65679774D01*
X149496744Y-65757795D01*
X149327226Y-65871063D01*
X149308289Y-65890000D01*
X145712711Y-65890000D01*
X145693774Y-65871063D01*
X145524256Y-65757795D01*
X145335898Y-65679774D01*
X145135939Y-65640000D01*
X144932061Y-65640000D01*
X144732102Y-65679774D01*
X144543744Y-65757795D01*
X144374226Y-65871063D01*
X144230063Y-66015226D01*
X144116795Y-66184744D01*
X144038774Y-66373102D01*
X143999000Y-66573061D01*
X143999000Y-66776939D01*
X144038774Y-66976898D01*
X144116795Y-67165256D01*
X144230063Y-67334774D01*
X144374226Y-67478937D01*
X144543744Y-67592205D01*
X144732102Y-67670226D01*
X144932061Y-67710000D01*
X145135939Y-67710000D01*
X145335898Y-67670226D01*
X145524256Y-67592205D01*
X145693774Y-67478937D01*
X145712711Y-67460000D01*
X146948843Y-67460000D01*
X146101843Y-68307000D01*
X146075061Y-68307000D01*
X145875102Y-68346774D01*
X145686744Y-68424795D01*
X145517226Y-68538063D01*
X145373063Y-68682226D01*
X145259795Y-68851744D01*
X145181774Y-69040102D01*
X145142000Y-69240061D01*
X145142000Y-69443939D01*
X145181774Y-69643898D01*
X145259795Y-69832256D01*
X145373063Y-70001774D01*
X145517226Y-70145937D01*
X145610110Y-70208000D01*
X144526981Y-70208000D01*
X144440937Y-70079226D01*
X144296774Y-69935063D01*
X144127256Y-69821795D01*
X143938898Y-69743774D01*
X143738939Y-69704000D01*
X143535061Y-69704000D01*
X143335102Y-69743774D01*
X143146744Y-69821795D01*
X142977226Y-69935063D01*
X142833063Y-70079226D01*
X142719795Y-70248744D01*
X142641774Y-70437102D01*
X142602000Y-70637061D01*
X142602000Y-70840939D01*
X142641774Y-71040898D01*
X142719795Y-71229256D01*
X142833063Y-71398774D01*
X142977226Y-71542937D01*
X143146744Y-71656205D01*
X143335102Y-71734226D01*
X143535061Y-71774000D01*
X143738939Y-71774000D01*
X143763078Y-71769198D01*
X143852439Y-71778000D01*
X143852446Y-71778000D01*
X143890999Y-71781797D01*
X143929552Y-71778000D01*
X150070289Y-71778000D01*
X150089226Y-71796937D01*
X150258744Y-71910205D01*
X150447102Y-71988226D01*
X150647061Y-72028000D01*
X150850939Y-72028000D01*
X151050898Y-71988226D01*
X151239256Y-71910205D01*
X151408774Y-71796937D01*
X151427711Y-71778000D01*
X155440025Y-71778000D01*
X155427038Y-71790987D01*
X155280939Y-72009641D01*
X155180304Y-72252595D01*
X155129000Y-72510514D01*
X155129000Y-72773486D01*
X155174455Y-73002000D01*
X151300711Y-73002000D01*
X151281774Y-72983063D01*
X151112256Y-72869795D01*
X150923898Y-72791774D01*
X150723939Y-72752000D01*
X150520061Y-72752000D01*
X150320102Y-72791774D01*
X150131744Y-72869795D01*
X149962226Y-72983063D01*
X149818063Y-73127226D01*
X149704795Y-73296744D01*
X149626774Y-73485102D01*
X149587000Y-73685061D01*
X149587000Y-73888939D01*
X149626774Y-74088898D01*
X149704795Y-74277256D01*
X149818063Y-74446774D01*
X149895289Y-74524000D01*
X129692000Y-74524000D01*
X129692000Y-71099500D01*
X130336286Y-71099500D01*
X130336286Y-74119500D01*
X140427715Y-74119500D01*
X140427715Y-71099500D01*
X130336286Y-71099500D01*
X129692000Y-71099500D01*
X129692000Y-56134000D01*
X131336149Y-56134000D01*
X131365084Y-56427777D01*
X131450775Y-56710264D01*
X131589931Y-56970606D01*
X131777203Y-57198797D01*
X132005394Y-57386069D01*
X132038940Y-57404000D01*
X132005394Y-57421931D01*
X131777203Y-57609203D01*
X131589931Y-57837394D01*
X131450775Y-58097736D01*
X131365084Y-58380223D01*
X131336149Y-58674000D01*
X131365084Y-58967777D01*
X131450775Y-59250264D01*
X131589931Y-59510606D01*
X131777203Y-59738797D01*
X132005394Y-59926069D01*
X132038940Y-59944000D01*
X132005394Y-59961931D01*
X131777203Y-60149203D01*
X131589931Y-60377394D01*
X131450775Y-60637736D01*
X131365084Y-60920223D01*
X131336149Y-61214000D01*
X131365084Y-61507777D01*
X131450775Y-61790264D01*
X131589931Y-62050606D01*
X131777203Y-62278797D01*
X132005394Y-62466069D01*
X132038940Y-62484000D01*
X132005394Y-62501931D01*
X131777203Y-62689203D01*
X131589931Y-62917394D01*
X131450775Y-63177736D01*
X131365084Y-63460223D01*
X131336149Y-63754000D01*
X131365084Y-64047777D01*
X131450775Y-64330264D01*
X131589931Y-64590606D01*
X131777203Y-64818797D01*
X132005394Y-65006069D01*
X132265736Y-65145225D01*
X132548223Y-65230916D01*
X132768381Y-65252600D01*
X132915619Y-65252600D01*
X133135777Y-65230916D01*
X133418264Y-65145225D01*
X133678606Y-65006069D01*
X133906797Y-64818797D01*
X134094069Y-64590606D01*
X134115470Y-64550567D01*
X134275146Y-64764293D01*
X134493512Y-64960817D01*
X134746022Y-65110964D01*
X135022973Y-65208963D01*
X135255000Y-65088464D01*
X135255000Y-63881000D01*
X135509000Y-63881000D01*
X135509000Y-65088464D01*
X135741027Y-65208963D01*
X136017978Y-65110964D01*
X136270488Y-64960817D01*
X136488854Y-64764293D01*
X136664684Y-64528944D01*
X136791222Y-64263814D01*
X136836958Y-64113026D01*
X136715817Y-63881000D01*
X135509000Y-63881000D01*
X135255000Y-63881000D01*
X135235000Y-63881000D01*
X135235000Y-63627000D01*
X135255000Y-63627000D01*
X135255000Y-63607000D01*
X135509000Y-63607000D01*
X135509000Y-63627000D01*
X136715817Y-63627000D01*
X136836958Y-63394974D01*
X136815855Y-63325399D01*
X137954048Y-63325399D01*
X137992601Y-63329196D01*
X138031154Y-63325399D01*
X138031162Y-63325399D01*
X138146488Y-63314040D01*
X138294461Y-63269153D01*
X138430834Y-63196261D01*
X138550365Y-63098163D01*
X138574948Y-63068209D01*
X139936861Y-61706296D01*
X139974774Y-61896898D01*
X140052795Y-62085256D01*
X140166063Y-62254774D01*
X140310226Y-62398937D01*
X140479744Y-62512205D01*
X140668102Y-62590226D01*
X140868061Y-62630000D01*
X141071939Y-62630000D01*
X141271898Y-62590226D01*
X141460256Y-62512205D01*
X141629774Y-62398937D01*
X141648711Y-62380000D01*
X146641289Y-62380000D01*
X146660226Y-62398937D01*
X146829744Y-62512205D01*
X147018102Y-62590226D01*
X147218061Y-62630000D01*
X147421939Y-62630000D01*
X147621898Y-62590226D01*
X147810256Y-62512205D01*
X147979774Y-62398937D01*
X147998711Y-62380000D01*
X152991289Y-62380000D01*
X153010226Y-62398937D01*
X153179744Y-62512205D01*
X153368102Y-62590226D01*
X153568061Y-62630000D01*
X153771939Y-62630000D01*
X153971898Y-62590226D01*
X154160256Y-62512205D01*
X154329774Y-62398937D01*
X154348711Y-62380000D01*
X159341289Y-62380000D01*
X159360226Y-62398937D01*
X159529744Y-62512205D01*
X159718102Y-62590226D01*
X159918061Y-62630000D01*
X160121939Y-62630000D01*
X160321898Y-62590226D01*
X160510256Y-62512205D01*
X160679774Y-62398937D01*
X160698711Y-62380000D01*
X165691289Y-62380000D01*
X165710226Y-62398937D01*
X165879744Y-62512205D01*
X166068102Y-62590226D01*
X166268061Y-62630000D01*
X166471939Y-62630000D01*
X166671898Y-62590226D01*
X166860256Y-62512205D01*
X167029774Y-62398937D01*
X167048711Y-62380000D01*
X172041289Y-62380000D01*
X172060226Y-62398937D01*
X172229744Y-62512205D01*
X172418102Y-62590226D01*
X172618061Y-62630000D01*
X172821939Y-62630000D01*
X173021898Y-62590226D01*
X173210256Y-62512205D01*
X173379774Y-62398937D01*
X173398711Y-62380000D01*
X179874058Y-62380000D01*
X179863815Y-62484000D01*
X179892487Y-62775111D01*
X179977401Y-63055034D01*
X180115294Y-63313014D01*
X180145648Y-63350000D01*
X173398711Y-63350000D01*
X173379774Y-63331063D01*
X173210256Y-63217795D01*
X173021898Y-63139774D01*
X172821939Y-63100000D01*
X172618061Y-63100000D01*
X172418102Y-63139774D01*
X172229744Y-63217795D01*
X172060226Y-63331063D01*
X172041289Y-63350000D01*
X167048711Y-63350000D01*
X167029774Y-63331063D01*
X166860256Y-63217795D01*
X166671898Y-63139774D01*
X166471939Y-63100000D01*
X166268061Y-63100000D01*
X166068102Y-63139774D01*
X165879744Y-63217795D01*
X165710226Y-63331063D01*
X165691289Y-63350000D01*
X160698711Y-63350000D01*
X160679774Y-63331063D01*
X160510256Y-63217795D01*
X160321898Y-63139774D01*
X160121939Y-63100000D01*
X159918061Y-63100000D01*
X159718102Y-63139774D01*
X159529744Y-63217795D01*
X159360226Y-63331063D01*
X159341289Y-63350000D01*
X154348711Y-63350000D01*
X154329774Y-63331063D01*
X154160256Y-63217795D01*
X153971898Y-63139774D01*
X153771939Y-63100000D01*
X153568061Y-63100000D01*
X153368102Y-63139774D01*
X153179744Y-63217795D01*
X153010226Y-63331063D01*
X152991289Y-63350000D01*
X147998711Y-63350000D01*
X147979774Y-63331063D01*
X147810256Y-63217795D01*
X147621898Y-63139774D01*
X147421939Y-63100000D01*
X147218061Y-63100000D01*
X147018102Y-63139774D01*
X146829744Y-63217795D01*
X146660226Y-63331063D01*
X146641289Y-63350000D01*
X141648711Y-63350000D01*
X141629774Y-63331063D01*
X141460256Y-63217795D01*
X141271898Y-63139774D01*
X141071939Y-63100000D01*
X140868061Y-63100000D01*
X140668102Y-63139774D01*
X140479744Y-63217795D01*
X140310226Y-63331063D01*
X140166063Y-63475226D01*
X140052795Y-63644744D01*
X139974774Y-63833102D01*
X139935000Y-64033061D01*
X139935000Y-64236939D01*
X139974774Y-64436898D01*
X140052795Y-64625256D01*
X140166063Y-64794774D01*
X140310226Y-64938937D01*
X140479744Y-65052205D01*
X140668102Y-65130226D01*
X140868061Y-65170000D01*
X141071939Y-65170000D01*
X141271898Y-65130226D01*
X141460256Y-65052205D01*
X141629774Y-64938937D01*
X141648711Y-64920000D01*
X146641289Y-64920000D01*
X146660226Y-64938937D01*
X146829744Y-65052205D01*
X147018102Y-65130226D01*
X147218061Y-65170000D01*
X147421939Y-65170000D01*
X147621898Y-65130226D01*
X147810256Y-65052205D01*
X147979774Y-64938937D01*
X147998711Y-64920000D01*
X152991289Y-64920000D01*
X153010226Y-64938937D01*
X153179744Y-65052205D01*
X153368102Y-65130226D01*
X153568061Y-65170000D01*
X153771939Y-65170000D01*
X153971898Y-65130226D01*
X154160256Y-65052205D01*
X154329774Y-64938937D01*
X154348711Y-64920000D01*
X159341289Y-64920000D01*
X159360226Y-64938937D01*
X159529744Y-65052205D01*
X159718102Y-65130226D01*
X159918061Y-65170000D01*
X160121939Y-65170000D01*
X160321898Y-65130226D01*
X160510256Y-65052205D01*
X160679774Y-64938937D01*
X160698711Y-64920000D01*
X165691289Y-64920000D01*
X165710226Y-64938937D01*
X165879744Y-65052205D01*
X166068102Y-65130226D01*
X166268061Y-65170000D01*
X166471939Y-65170000D01*
X166671898Y-65130226D01*
X166860256Y-65052205D01*
X167029774Y-64938937D01*
X167048711Y-64920000D01*
X172041289Y-64920000D01*
X172060226Y-64938937D01*
X172229744Y-65052205D01*
X172418102Y-65130226D01*
X172618061Y-65170000D01*
X172821939Y-65170000D01*
X173021898Y-65130226D01*
X173210256Y-65052205D01*
X173379774Y-64938937D01*
X173398711Y-64920000D01*
X179867928Y-64920000D01*
X179867928Y-65874000D01*
X179880188Y-65998482D01*
X179916498Y-66118180D01*
X179975463Y-66228494D01*
X180054815Y-66325185D01*
X180151506Y-66404537D01*
X180261820Y-66463502D01*
X180381518Y-66499812D01*
X180506000Y-66512072D01*
X182206000Y-66512072D01*
X182330482Y-66499812D01*
X182450180Y-66463502D01*
X182560494Y-66404537D01*
X182657185Y-66325185D01*
X182736537Y-66228494D01*
X182795502Y-66118180D01*
X182831812Y-65998482D01*
X182844072Y-65874000D01*
X182844072Y-64174000D01*
X182831812Y-64049518D01*
X182795502Y-63929820D01*
X182736537Y-63819506D01*
X182657185Y-63722815D01*
X182560494Y-63643463D01*
X182450180Y-63584498D01*
X182381313Y-63563607D01*
X182411134Y-63539134D01*
X182596706Y-63313014D01*
X182734599Y-63055034D01*
X182819513Y-62775111D01*
X182848185Y-62484000D01*
X182819513Y-62192889D01*
X182734599Y-61912966D01*
X182596706Y-61654986D01*
X182411134Y-61428866D01*
X182185014Y-61243294D01*
X182130209Y-61214000D01*
X182185014Y-61184706D01*
X182411134Y-60999134D01*
X182596706Y-60773014D01*
X182734599Y-60515034D01*
X182819513Y-60235111D01*
X182848185Y-59944000D01*
X182819513Y-59652889D01*
X182734599Y-59372966D01*
X182596706Y-59114986D01*
X182411134Y-58888866D01*
X182185014Y-58703294D01*
X182130209Y-58674000D01*
X182185014Y-58644706D01*
X182411134Y-58459134D01*
X182596706Y-58233014D01*
X182734599Y-57975034D01*
X182819513Y-57695111D01*
X182848185Y-57404000D01*
X182819513Y-57112889D01*
X182734599Y-56832966D01*
X182596706Y-56574986D01*
X182411134Y-56348866D01*
X182185014Y-56163294D01*
X182130209Y-56134000D01*
X182185014Y-56104706D01*
X182411134Y-55919134D01*
X182596706Y-55693014D01*
X182734599Y-55435034D01*
X182819513Y-55155111D01*
X182848185Y-54864000D01*
X182819513Y-54572889D01*
X182734599Y-54292966D01*
X182596706Y-54034986D01*
X182411134Y-53808866D01*
X182185014Y-53623294D01*
X182130209Y-53594000D01*
X182185014Y-53564706D01*
X182411134Y-53379134D01*
X182596706Y-53153014D01*
X182734599Y-52895034D01*
X182819513Y-52615111D01*
X182848185Y-52324000D01*
X182819513Y-52032889D01*
X182734599Y-51752966D01*
X182596706Y-51494986D01*
X182411134Y-51268866D01*
X182185014Y-51083294D01*
X181927034Y-50945401D01*
X181647111Y-50860487D01*
X181428950Y-50839000D01*
X181283050Y-50839000D01*
X181064889Y-50860487D01*
X181020692Y-50873894D01*
X180905233Y-50779138D01*
X180768860Y-50706246D01*
X180620887Y-50661359D01*
X180505561Y-50650000D01*
X180505553Y-50650000D01*
X180467000Y-50646203D01*
X180428447Y-50650000D01*
X173398711Y-50650000D01*
X173379774Y-50631063D01*
X173210256Y-50517795D01*
X173021898Y-50439774D01*
X172821939Y-50400000D01*
X172618061Y-50400000D01*
X172418102Y-50439774D01*
X172229744Y-50517795D01*
X172060226Y-50631063D01*
X172041289Y-50650000D01*
X170932157Y-50650000D01*
X171354816Y-50227341D01*
X171384764Y-50202764D01*
X171482862Y-50083233D01*
X171555754Y-49946860D01*
X171583993Y-49853768D01*
X171600641Y-49798888D01*
X171604059Y-49764188D01*
X171612000Y-49683561D01*
X171612000Y-49683554D01*
X171615797Y-49645001D01*
X171612000Y-49606448D01*
X171612000Y-48557711D01*
X171630937Y-48538774D01*
X171744205Y-48369256D01*
X171822226Y-48180898D01*
X171862000Y-47980939D01*
X171862000Y-47777061D01*
X171822226Y-47577102D01*
X171744205Y-47388744D01*
X171630937Y-47219226D01*
X171486774Y-47075063D01*
X171317256Y-46961795D01*
X171128898Y-46883774D01*
X170928939Y-46844000D01*
X170725061Y-46844000D01*
X170525102Y-46883774D01*
X170336744Y-46961795D01*
X170167226Y-47075063D01*
X170023063Y-47219226D01*
X169909795Y-47388744D01*
X169831774Y-47577102D01*
X169792000Y-47777061D01*
X169792000Y-47980939D01*
X169831774Y-48180898D01*
X169909795Y-48369256D01*
X170023063Y-48538774D01*
X170042001Y-48557712D01*
X170042000Y-49319842D01*
X169854843Y-49507000D01*
X167048711Y-49507000D01*
X167029774Y-49488063D01*
X166860256Y-49374795D01*
X166671898Y-49296774D01*
X166471939Y-49257000D01*
X166268061Y-49257000D01*
X166068102Y-49296774D01*
X165879744Y-49374795D01*
X165710226Y-49488063D01*
X165566063Y-49632226D01*
X165452795Y-49801744D01*
X165374774Y-49990102D01*
X165335000Y-50190061D01*
X165335000Y-50393939D01*
X165374774Y-50593898D01*
X165398012Y-50650000D01*
X160698711Y-50650000D01*
X160679774Y-50631063D01*
X160510256Y-50517795D01*
X160321898Y-50439774D01*
X160121939Y-50400000D01*
X159918061Y-50400000D01*
X159718102Y-50439774D01*
X159529744Y-50517795D01*
X159360226Y-50631063D01*
X159341289Y-50650000D01*
X154348711Y-50650000D01*
X154329774Y-50631063D01*
X154160256Y-50517795D01*
X153971898Y-50439774D01*
X153771939Y-50400000D01*
X153568061Y-50400000D01*
X153368102Y-50439774D01*
X153179744Y-50517795D01*
X153010226Y-50631063D01*
X152991289Y-50650000D01*
X147998711Y-50650000D01*
X147979774Y-50631063D01*
X147810256Y-50517795D01*
X147621898Y-50439774D01*
X147421939Y-50400000D01*
X147218061Y-50400000D01*
X147018102Y-50439774D01*
X146829744Y-50517795D01*
X146660226Y-50631063D01*
X146641289Y-50650000D01*
X141648711Y-50650000D01*
X141629774Y-50631063D01*
X141460256Y-50517795D01*
X141271898Y-50439774D01*
X141071939Y-50400000D01*
X140868061Y-50400000D01*
X140668102Y-50439774D01*
X140479744Y-50517795D01*
X140310226Y-50631063D01*
X140166063Y-50775226D01*
X140052795Y-50944744D01*
X139974774Y-51133102D01*
X139935000Y-51333061D01*
X139935000Y-51536939D01*
X139946628Y-51595399D01*
X134094154Y-51595399D01*
X134055601Y-51591602D01*
X134017048Y-51595399D01*
X134017040Y-51595399D01*
X133901714Y-51606758D01*
X133753741Y-51651645D01*
X133627000Y-51719389D01*
X133627000Y-48331157D01*
X135707158Y-46251000D01*
X136891916Y-46251000D01*
X136858140Y-46261246D01*
X136721767Y-46334138D01*
X136602236Y-46432236D01*
X136577655Y-46462188D01*
X134854190Y-48185653D01*
X134824236Y-48210236D01*
X134726138Y-48329768D01*
X134653246Y-48466141D01*
X134608359Y-48614114D01*
X134597000Y-48729440D01*
X134597000Y-48729447D01*
X134593203Y-48768000D01*
X134597000Y-48806553D01*
X134597001Y-49613288D01*
X134578063Y-49632226D01*
X134464795Y-49801744D01*
X134386774Y-49990102D01*
X134347000Y-50190061D01*
X134347000Y-50393939D01*
X134386774Y-50593898D01*
X134464795Y-50782256D01*
X134578063Y-50951774D01*
X134722226Y-51095937D01*
X134891744Y-51209205D01*
X135080102Y-51287226D01*
X135280061Y-51327000D01*
X135483939Y-51327000D01*
X135683898Y-51287226D01*
X135872256Y-51209205D01*
X136041774Y-51095937D01*
X136185937Y-50951774D01*
X136299205Y-50782256D01*
X136377226Y-50593898D01*
X136417000Y-50393939D01*
X136417000Y-50190061D01*
X136377226Y-49990102D01*
X136299205Y-49801744D01*
X136185937Y-49632226D01*
X136167000Y-49613289D01*
X136167000Y-49093157D01*
X137133643Y-48126514D01*
X155002000Y-48126514D01*
X155002000Y-48389486D01*
X155053304Y-48647405D01*
X155153939Y-48890359D01*
X155300038Y-49109013D01*
X155485987Y-49294962D01*
X155704641Y-49441061D01*
X155947595Y-49541696D01*
X156205514Y-49593000D01*
X156468486Y-49593000D01*
X156726405Y-49541696D01*
X156969359Y-49441061D01*
X157188013Y-49294962D01*
X157373962Y-49109013D01*
X157520061Y-48890359D01*
X157587000Y-48728754D01*
X157653939Y-48890359D01*
X157800038Y-49109013D01*
X157985987Y-49294962D01*
X158204641Y-49441061D01*
X158447595Y-49541696D01*
X158705514Y-49593000D01*
X158968486Y-49593000D01*
X159226405Y-49541696D01*
X159469359Y-49441061D01*
X159688013Y-49294962D01*
X159873962Y-49109013D01*
X160020061Y-48890359D01*
X160087000Y-48728754D01*
X160153939Y-48890359D01*
X160300038Y-49109013D01*
X160485987Y-49294962D01*
X160704641Y-49441061D01*
X160947595Y-49541696D01*
X161205514Y-49593000D01*
X161468486Y-49593000D01*
X161726405Y-49541696D01*
X161969359Y-49441061D01*
X162188013Y-49294962D01*
X162373962Y-49109013D01*
X162520061Y-48890359D01*
X162620696Y-48647405D01*
X162672000Y-48389486D01*
X162672000Y-48126514D01*
X162620696Y-47868595D01*
X162520061Y-47625641D01*
X162373962Y-47406987D01*
X162188013Y-47221038D01*
X161969359Y-47074939D01*
X161726405Y-46974304D01*
X161468486Y-46923000D01*
X161205514Y-46923000D01*
X160947595Y-46974304D01*
X160704641Y-47074939D01*
X160485987Y-47221038D01*
X160300038Y-47406987D01*
X160153939Y-47625641D01*
X160087000Y-47787246D01*
X160020061Y-47625641D01*
X159873962Y-47406987D01*
X159688013Y-47221038D01*
X159469359Y-47074939D01*
X159226405Y-46974304D01*
X158968486Y-46923000D01*
X158705514Y-46923000D01*
X158447595Y-46974304D01*
X158204641Y-47074939D01*
X157985987Y-47221038D01*
X157800038Y-47406987D01*
X157653939Y-47625641D01*
X157587000Y-47787246D01*
X157520061Y-47625641D01*
X157373962Y-47406987D01*
X157188013Y-47221038D01*
X156969359Y-47074939D01*
X156726405Y-46974304D01*
X156468486Y-46923000D01*
X156205514Y-46923000D01*
X155947595Y-46974304D01*
X155704641Y-47074939D01*
X155485987Y-47221038D01*
X155300038Y-47406987D01*
X155153939Y-47625641D01*
X155053304Y-47868595D01*
X155002000Y-48126514D01*
X137133643Y-48126514D01*
X137485157Y-47775000D01*
X150301762Y-47775000D01*
X150340315Y-47778797D01*
X150378868Y-47775000D01*
X150378876Y-47775000D01*
X150494202Y-47763641D01*
X150642175Y-47718754D01*
X150778548Y-47645862D01*
X150898079Y-47547764D01*
X150922662Y-47517810D01*
X150928345Y-47512127D01*
X151033602Y-47555726D01*
X151233561Y-47595500D01*
X151437439Y-47595500D01*
X151637398Y-47555726D01*
X151825756Y-47477705D01*
X151995274Y-47364437D01*
X152139437Y-47220274D01*
X152252705Y-47050756D01*
X152330726Y-46862398D01*
X152370500Y-46662439D01*
X152370500Y-46458561D01*
X152330726Y-46258602D01*
X152252705Y-46070244D01*
X152139437Y-45900726D01*
X151995274Y-45756563D01*
X151825756Y-45643295D01*
X151637398Y-45565274D01*
X151437439Y-45525500D01*
X151233561Y-45525500D01*
X151033602Y-45565274D01*
X150845244Y-45643295D01*
X150675726Y-45756563D01*
X150648654Y-45783635D01*
X150615928Y-45786858D01*
X150467955Y-45831746D01*
X150331582Y-45904638D01*
X150212051Y-46002736D01*
X150187464Y-46032695D01*
X150015159Y-46205000D01*
X146647711Y-46205000D01*
X146726937Y-46125774D01*
X146840205Y-45956256D01*
X146918226Y-45767898D01*
X146958000Y-45567939D01*
X146958000Y-45364061D01*
X146918226Y-45164102D01*
X146840205Y-44975744D01*
X146726937Y-44806226D01*
X146582774Y-44662063D01*
X146413256Y-44548795D01*
X146224898Y-44470774D01*
X146024939Y-44431000D01*
X145821061Y-44431000D01*
X145621102Y-44470774D01*
X145432744Y-44548795D01*
X145263226Y-44662063D01*
X145244289Y-44681000D01*
X135420552Y-44681000D01*
X135381999Y-44677203D01*
X135343446Y-44681000D01*
X135343439Y-44681000D01*
X135242490Y-44690943D01*
X135228112Y-44692359D01*
X135193672Y-44702806D01*
X135080140Y-44737246D01*
X134943767Y-44810138D01*
X134883559Y-44859550D01*
X134854187Y-44883655D01*
X134854184Y-44883658D01*
X134824236Y-44908236D01*
X134799658Y-44938184D01*
X132314190Y-47423653D01*
X132284236Y-47448236D01*
X132186138Y-47567768D01*
X132113246Y-47704141D01*
X132068359Y-47852114D01*
X132057000Y-47967440D01*
X132057000Y-47967447D01*
X132053203Y-48006000D01*
X132057000Y-48044553D01*
X132057001Y-52092328D01*
X131978400Y-52092328D01*
X131853918Y-52104588D01*
X131734220Y-52140898D01*
X131623906Y-52199863D01*
X131527215Y-52279215D01*
X131447863Y-52375906D01*
X131388898Y-52486220D01*
X131352588Y-52605918D01*
X131340328Y-52730400D01*
X131340328Y-54457600D01*
X131352588Y-54582082D01*
X131388898Y-54701780D01*
X131447863Y-54812094D01*
X131527215Y-54908785D01*
X131623906Y-54988137D01*
X131734220Y-55047102D01*
X131785265Y-55062586D01*
X131777203Y-55069203D01*
X131589931Y-55297394D01*
X131450775Y-55557736D01*
X131365084Y-55840223D01*
X131336149Y-56134000D01*
X129692000Y-56134000D01*
X129692000Y-44258000D01*
X154998928Y-44258000D01*
X154998928Y-45658000D01*
X155011188Y-45782482D01*
X155047498Y-45902180D01*
X155106463Y-46012494D01*
X155185815Y-46109185D01*
X155282506Y-46188537D01*
X155392820Y-46247502D01*
X155512518Y-46283812D01*
X155637000Y-46296072D01*
X157037000Y-46296072D01*
X157161482Y-46283812D01*
X157281180Y-46247502D01*
X157391494Y-46188537D01*
X157488185Y-46109185D01*
X157567537Y-46012494D01*
X157626502Y-45902180D01*
X157662812Y-45782482D01*
X157675072Y-45658000D01*
X157675072Y-45621987D01*
X157800038Y-45809013D01*
X157985987Y-45994962D01*
X158204641Y-46141061D01*
X158447595Y-46241696D01*
X158705514Y-46293000D01*
X158968486Y-46293000D01*
X159226405Y-46241696D01*
X159469359Y-46141061D01*
X159688013Y-45994962D01*
X159873962Y-45809013D01*
X160020061Y-45590359D01*
X160087000Y-45428754D01*
X160153939Y-45590359D01*
X160300038Y-45809013D01*
X160485987Y-45994962D01*
X160704641Y-46141061D01*
X160947595Y-46241696D01*
X161205514Y-46293000D01*
X161468486Y-46293000D01*
X161726405Y-46241696D01*
X161969359Y-46141061D01*
X162188013Y-45994962D01*
X162373962Y-45809013D01*
X162520061Y-45590359D01*
X162620696Y-45347405D01*
X162672000Y-45089486D01*
X162672000Y-44826514D01*
X162620696Y-44568595D01*
X162520061Y-44325641D01*
X162373962Y-44106987D01*
X162188013Y-43921038D01*
X161969359Y-43774939D01*
X161726405Y-43674304D01*
X161468486Y-43623000D01*
X161205514Y-43623000D01*
X160947595Y-43674304D01*
X160704641Y-43774939D01*
X160485987Y-43921038D01*
X160300038Y-44106987D01*
X160153939Y-44325641D01*
X160087000Y-44487246D01*
X160020061Y-44325641D01*
X159873962Y-44106987D01*
X159688013Y-43921038D01*
X159469359Y-43774939D01*
X159226405Y-43674304D01*
X158968486Y-43623000D01*
X158705514Y-43623000D01*
X158447595Y-43674304D01*
X158204641Y-43774939D01*
X157985987Y-43921038D01*
X157800038Y-44106987D01*
X157675072Y-44294013D01*
X157675072Y-44258000D01*
X157662812Y-44133518D01*
X157626502Y-44013820D01*
X157567537Y-43903506D01*
X157488185Y-43806815D01*
X157391494Y-43727463D01*
X157281180Y-43668498D01*
X157161482Y-43632188D01*
X157037000Y-43619928D01*
X155637000Y-43619928D01*
X155512518Y-43632188D01*
X155392820Y-43668498D01*
X155282506Y-43727463D01*
X155185815Y-43806815D01*
X155106463Y-43903506D01*
X155047498Y-44013820D01*
X155011188Y-44133518D01*
X154998928Y-44258000D01*
X129692000Y-44258000D01*
X129692000Y-43332000D01*
X188824000Y-43332000D01*
X188824001Y-74524000D01*
X188824001Y-74524000D01*
G37*
X188824001Y-74524000D02*
X159083626Y-74524000D01*
X159110809Y-74515754D01*
X159247182Y-74442862D01*
X159366713Y-74344764D01*
X159391296Y-74314810D01*
X159491810Y-74214296D01*
X159521764Y-74189713D01*
X159619862Y-74070182D01*
X159692754Y-73933809D01*
X159737641Y-73785836D01*
X159743458Y-73726773D01*
X159815013Y-73678962D01*
X160000962Y-73493013D01*
X160147061Y-73274359D01*
X160214000Y-73112754D01*
X160280939Y-73274359D01*
X160427038Y-73493013D01*
X160612987Y-73678962D01*
X160831641Y-73825061D01*
X161074595Y-73925696D01*
X161332514Y-73977000D01*
X161595486Y-73977000D01*
X161853405Y-73925696D01*
X162096359Y-73825061D01*
X162315013Y-73678962D01*
X162500962Y-73493013D01*
X162647061Y-73274359D01*
X162747696Y-73031405D01*
X162799000Y-72773486D01*
X162799000Y-72510514D01*
X162747696Y-72252595D01*
X162647061Y-72009641D01*
X162500962Y-71790987D01*
X162487975Y-71778000D01*
X165564291Y-71778000D01*
X165583226Y-71796935D01*
X165752744Y-71910203D01*
X165941102Y-71988224D01*
X166141061Y-72027998D01*
X166344939Y-72027998D01*
X166544898Y-71988224D01*
X166733256Y-71910203D01*
X166902774Y-71796935D01*
X167046937Y-71652772D01*
X167160205Y-71483254D01*
X167238226Y-71294896D01*
X167277092Y-71099500D01*
X172540238Y-71099500D01*
X172540238Y-74119500D01*
X186869762Y-74119500D01*
X186869762Y-71099500D01*
X172540238Y-71099500D01*
X167277092Y-71099500D01*
X167278000Y-71094937D01*
X167278000Y-70891059D01*
X167238226Y-70691100D01*
X167160205Y-70502742D01*
X167046937Y-70333224D01*
X166902774Y-70189061D01*
X166733256Y-70075793D01*
X166544898Y-69997772D01*
X166344939Y-69957998D01*
X166141061Y-69957998D01*
X165941102Y-69997772D01*
X165752744Y-70075793D01*
X165583226Y-70189061D01*
X165564287Y-70208000D01*
X162485975Y-70208000D01*
X162500962Y-70193013D01*
X162647061Y-69974359D01*
X162747696Y-69731405D01*
X162799000Y-69473486D01*
X162799000Y-69210514D01*
X162747696Y-68952595D01*
X162655494Y-68730000D01*
X166707289Y-68730000D01*
X166726226Y-68748937D01*
X166895744Y-68862205D01*
X167084102Y-68940226D01*
X167284061Y-68980000D01*
X167487939Y-68980000D01*
X167687898Y-68940226D01*
X167876256Y-68862205D01*
X168045774Y-68748937D01*
X168189937Y-68604774D01*
X168303205Y-68435256D01*
X168381226Y-68246898D01*
X168421000Y-68046939D01*
X168421000Y-67979999D01*
X170788840Y-67979999D01*
X172551651Y-69742810D01*
X172576234Y-69772764D01*
X172695765Y-69870862D01*
X172795826Y-69924345D01*
X172832138Y-69943754D01*
X172980111Y-69988642D01*
X173055024Y-69996020D01*
X173095437Y-70000000D01*
X173095442Y-70000000D01*
X173133998Y-70003797D01*
X173172554Y-70000000D01*
X173565289Y-70000000D01*
X173584226Y-70018937D01*
X173753744Y-70132205D01*
X173942102Y-70210226D01*
X174142061Y-70250000D01*
X174345939Y-70250000D01*
X174545898Y-70210226D01*
X174734256Y-70132205D01*
X174903774Y-70018937D01*
X175047937Y-69874774D01*
X175161205Y-69705256D01*
X175239226Y-69516898D01*
X175279000Y-69316939D01*
X175279000Y-69113061D01*
X175239226Y-68913102D01*
X175161205Y-68724744D01*
X175047937Y-68555226D01*
X174903774Y-68411063D01*
X174734256Y-68297795D01*
X174545898Y-68219774D01*
X174345939Y-68180000D01*
X174142061Y-68180000D01*
X173942102Y-68219774D01*
X173753744Y-68297795D01*
X173584226Y-68411063D01*
X173565289Y-68430000D01*
X173459155Y-68430000D01*
X172435933Y-67406778D01*
X172507937Y-67334774D01*
X172621205Y-67165256D01*
X172699226Y-66976898D01*
X172739000Y-66776939D01*
X172739000Y-66573061D01*
X172699226Y-66373102D01*
X172621205Y-66184744D01*
X172507937Y-66015226D01*
X172363774Y-65871063D01*
X172194256Y-65757795D01*
X172005898Y-65679774D01*
X171805939Y-65640000D01*
X171602061Y-65640000D01*
X171402102Y-65679774D01*
X171213744Y-65757795D01*
X171044226Y-65871063D01*
X171025289Y-65890000D01*
X163365711Y-65890000D01*
X163346774Y-65871063D01*
X163177256Y-65757795D01*
X162988898Y-65679774D01*
X162788939Y-65640000D01*
X162585061Y-65640000D01*
X162385102Y-65679774D01*
X162196744Y-65757795D01*
X162027226Y-65871063D01*
X161926551Y-65971738D01*
X161878858Y-65946246D01*
X161730885Y-65901359D01*
X161615559Y-65890000D01*
X161615551Y-65890000D01*
X161576998Y-65886203D01*
X161538445Y-65890000D01*
X150665711Y-65890000D01*
X150646774Y-65871063D01*
X150477256Y-65757795D01*
X150288898Y-65679774D01*
X150088939Y-65640000D01*
X149885061Y-65640000D01*
X149685102Y-65679774D01*
X149496744Y-65757795D01*
X149327226Y-65871063D01*
X149308289Y-65890000D01*
X145712711Y-65890000D01*
X145693774Y-65871063D01*
X145524256Y-65757795D01*
X145335898Y-65679774D01*
X145135939Y-65640000D01*
X144932061Y-65640000D01*
X144732102Y-65679774D01*
X144543744Y-65757795D01*
X144374226Y-65871063D01*
X144230063Y-66015226D01*
X144116795Y-66184744D01*
X144038774Y-66373102D01*
X143999000Y-66573061D01*
X143999000Y-66776939D01*
X144038774Y-66976898D01*
X144116795Y-67165256D01*
X144230063Y-67334774D01*
X144374226Y-67478937D01*
X144543744Y-67592205D01*
X144732102Y-67670226D01*
X144932061Y-67710000D01*
X145135939Y-67710000D01*
X145335898Y-67670226D01*
X145524256Y-67592205D01*
X145693774Y-67478937D01*
X145712711Y-67460000D01*
X146948843Y-67460000D01*
X146101843Y-68307000D01*
X146075061Y-68307000D01*
X145875102Y-68346774D01*
X145686744Y-68424795D01*
X145517226Y-68538063D01*
X145373063Y-68682226D01*
X145259795Y-68851744D01*
X145181774Y-69040102D01*
X145142000Y-69240061D01*
X145142000Y-69443939D01*
X145181774Y-69643898D01*
X145259795Y-69832256D01*
X145373063Y-70001774D01*
X145517226Y-70145937D01*
X145610110Y-70208000D01*
X144526981Y-70208000D01*
X144440937Y-70079226D01*
X144296774Y-69935063D01*
X144127256Y-69821795D01*
X143938898Y-69743774D01*
X143738939Y-69704000D01*
X143535061Y-69704000D01*
X143335102Y-69743774D01*
X143146744Y-69821795D01*
X142977226Y-69935063D01*
X142833063Y-70079226D01*
X142719795Y-70248744D01*
X142641774Y-70437102D01*
X142602000Y-70637061D01*
X142602000Y-70840939D01*
X142641774Y-71040898D01*
X142719795Y-71229256D01*
X142833063Y-71398774D01*
X142977226Y-71542937D01*
X143146744Y-71656205D01*
X143335102Y-71734226D01*
X143535061Y-71774000D01*
X143738939Y-71774000D01*
X143763078Y-71769198D01*
X143852439Y-71778000D01*
X143852446Y-71778000D01*
X143890999Y-71781797D01*
X143929552Y-71778000D01*
X150070289Y-71778000D01*
X150089226Y-71796937D01*
X150258744Y-71910205D01*
X150447102Y-71988226D01*
X150647061Y-72028000D01*
X150850939Y-72028000D01*
X151050898Y-71988226D01*
X151239256Y-71910205D01*
X151408774Y-71796937D01*
X151427711Y-71778000D01*
X155440025Y-71778000D01*
X155427038Y-71790987D01*
X155280939Y-72009641D01*
X155180304Y-72252595D01*
X155129000Y-72510514D01*
X155129000Y-72773486D01*
X155174455Y-73002000D01*
X151300711Y-73002000D01*
X151281774Y-72983063D01*
X151112256Y-72869795D01*
X150923898Y-72791774D01*
X150723939Y-72752000D01*
X150520061Y-72752000D01*
X150320102Y-72791774D01*
X150131744Y-72869795D01*
X149962226Y-72983063D01*
X149818063Y-73127226D01*
X149704795Y-73296744D01*
X149626774Y-73485102D01*
X149587000Y-73685061D01*
X149587000Y-73888939D01*
X149626774Y-74088898D01*
X149704795Y-74277256D01*
X149818063Y-74446774D01*
X149895289Y-74524000D01*
X129692000Y-74524000D01*
X129692000Y-71099500D01*
X130336286Y-71099500D01*
X130336286Y-74119500D01*
X140427715Y-74119500D01*
X140427715Y-71099500D01*
X130336286Y-71099500D01*
X129692000Y-71099500D01*
X129692000Y-56134000D01*
X131336149Y-56134000D01*
X131365084Y-56427777D01*
X131450775Y-56710264D01*
X131589931Y-56970606D01*
X131777203Y-57198797D01*
X132005394Y-57386069D01*
X132038940Y-57404000D01*
X132005394Y-57421931D01*
X131777203Y-57609203D01*
X131589931Y-57837394D01*
X131450775Y-58097736D01*
X131365084Y-58380223D01*
X131336149Y-58674000D01*
X131365084Y-58967777D01*
X131450775Y-59250264D01*
X131589931Y-59510606D01*
X131777203Y-59738797D01*
X132005394Y-59926069D01*
X132038940Y-59944000D01*
X132005394Y-59961931D01*
X131777203Y-60149203D01*
X131589931Y-60377394D01*
X131450775Y-60637736D01*
X131365084Y-60920223D01*
X131336149Y-61214000D01*
X131365084Y-61507777D01*
X131450775Y-61790264D01*
X131589931Y-62050606D01*
X131777203Y-62278797D01*
X132005394Y-62466069D01*
X132038940Y-62484000D01*
X132005394Y-62501931D01*
X131777203Y-62689203D01*
X131589931Y-62917394D01*
X131450775Y-63177736D01*
X131365084Y-63460223D01*
X131336149Y-63754000D01*
X131365084Y-64047777D01*
X131450775Y-64330264D01*
X131589931Y-64590606D01*
X131777203Y-64818797D01*
X132005394Y-65006069D01*
X132265736Y-65145225D01*
X132548223Y-65230916D01*
X132768381Y-65252600D01*
X132915619Y-65252600D01*
X133135777Y-65230916D01*
X133418264Y-65145225D01*
X133678606Y-65006069D01*
X133906797Y-64818797D01*
X134094069Y-64590606D01*
X134115470Y-64550567D01*
X134275146Y-64764293D01*
X134493512Y-64960817D01*
X134746022Y-65110964D01*
X135022973Y-65208963D01*
X135255000Y-65088464D01*
X135255000Y-63881000D01*
X135509000Y-63881000D01*
X135509000Y-65088464D01*
X135741027Y-65208963D01*
X136017978Y-65110964D01*
X136270488Y-64960817D01*
X136488854Y-64764293D01*
X136664684Y-64528944D01*
X136791222Y-64263814D01*
X136836958Y-64113026D01*
X136715817Y-63881000D01*
X135509000Y-63881000D01*
X135255000Y-63881000D01*
X135235000Y-63881000D01*
X135235000Y-63627000D01*
X135255000Y-63627000D01*
X135255000Y-63607000D01*
X135509000Y-63607000D01*
X135509000Y-63627000D01*
X136715817Y-63627000D01*
X136836958Y-63394974D01*
X136815855Y-63325399D01*
X137954048Y-63325399D01*
X137992601Y-63329196D01*
X138031154Y-63325399D01*
X138031162Y-63325399D01*
X138146488Y-63314040D01*
X138294461Y-63269153D01*
X138430834Y-63196261D01*
X138550365Y-63098163D01*
X138574948Y-63068209D01*
X139936861Y-61706296D01*
X139974774Y-61896898D01*
X140052795Y-62085256D01*
X140166063Y-62254774D01*
X140310226Y-62398937D01*
X140479744Y-62512205D01*
X140668102Y-62590226D01*
X140868061Y-62630000D01*
X141071939Y-62630000D01*
X141271898Y-62590226D01*
X141460256Y-62512205D01*
X141629774Y-62398937D01*
X141648711Y-62380000D01*
X146641289Y-62380000D01*
X146660226Y-62398937D01*
X146829744Y-62512205D01*
X147018102Y-62590226D01*
X147218061Y-62630000D01*
X147421939Y-62630000D01*
X147621898Y-62590226D01*
X147810256Y-62512205D01*
X147979774Y-62398937D01*
X147998711Y-62380000D01*
X152991289Y-62380000D01*
X153010226Y-62398937D01*
X153179744Y-62512205D01*
X153368102Y-62590226D01*
X153568061Y-62630000D01*
X153771939Y-62630000D01*
X153971898Y-62590226D01*
X154160256Y-62512205D01*
X154329774Y-62398937D01*
X154348711Y-62380000D01*
X159341289Y-62380000D01*
X159360226Y-62398937D01*
X159529744Y-62512205D01*
X159718102Y-62590226D01*
X159918061Y-62630000D01*
X160121939Y-62630000D01*
X160321898Y-62590226D01*
X160510256Y-62512205D01*
X160679774Y-62398937D01*
X160698711Y-62380000D01*
X165691289Y-62380000D01*
X165710226Y-62398937D01*
X165879744Y-62512205D01*
X166068102Y-62590226D01*
X166268061Y-62630000D01*
X166471939Y-62630000D01*
X166671898Y-62590226D01*
X166860256Y-62512205D01*
X167029774Y-62398937D01*
X167048711Y-62380000D01*
X172041289Y-62380000D01*
X172060226Y-62398937D01*
X172229744Y-62512205D01*
X172418102Y-62590226D01*
X172618061Y-62630000D01*
X172821939Y-62630000D01*
X173021898Y-62590226D01*
X173210256Y-62512205D01*
X173379774Y-62398937D01*
X173398711Y-62380000D01*
X179874058Y-62380000D01*
X179863815Y-62484000D01*
X179892487Y-62775111D01*
X179977401Y-63055034D01*
X180115294Y-63313014D01*
X180145648Y-63350000D01*
X173398711Y-63350000D01*
X173379774Y-63331063D01*
X173210256Y-63217795D01*
X173021898Y-63139774D01*
X172821939Y-63100000D01*
X172618061Y-63100000D01*
X172418102Y-63139774D01*
X172229744Y-63217795D01*
X172060226Y-63331063D01*
X172041289Y-63350000D01*
X167048711Y-63350000D01*
X167029774Y-63331063D01*
X166860256Y-63217795D01*
X166671898Y-63139774D01*
X166471939Y-63100000D01*
X166268061Y-63100000D01*
X166068102Y-63139774D01*
X165879744Y-63217795D01*
X165710226Y-63331063D01*
X165691289Y-63350000D01*
X160698711Y-63350000D01*
X160679774Y-63331063D01*
X160510256Y-63217795D01*
X160321898Y-63139774D01*
X160121939Y-63100000D01*
X159918061Y-63100000D01*
X159718102Y-63139774D01*
X159529744Y-63217795D01*
X159360226Y-63331063D01*
X159341289Y-63350000D01*
X154348711Y-63350000D01*
X154329774Y-63331063D01*
X154160256Y-63217795D01*
X153971898Y-63139774D01*
X153771939Y-63100000D01*
X153568061Y-63100000D01*
X153368102Y-63139774D01*
X153179744Y-63217795D01*
X153010226Y-63331063D01*
X152991289Y-63350000D01*
X147998711Y-63350000D01*
X147979774Y-63331063D01*
X147810256Y-63217795D01*
X147621898Y-63139774D01*
X147421939Y-63100000D01*
X147218061Y-63100000D01*
X147018102Y-63139774D01*
X146829744Y-63217795D01*
X146660226Y-63331063D01*
X146641289Y-63350000D01*
X141648711Y-63350000D01*
X141629774Y-63331063D01*
X141460256Y-63217795D01*
X141271898Y-63139774D01*
X141071939Y-63100000D01*
X140868061Y-63100000D01*
X140668102Y-63139774D01*
X140479744Y-63217795D01*
X140310226Y-63331063D01*
X140166063Y-63475226D01*
X140052795Y-63644744D01*
X139974774Y-63833102D01*
X139935000Y-64033061D01*
X139935000Y-64236939D01*
X139974774Y-64436898D01*
X140052795Y-64625256D01*
X140166063Y-64794774D01*
X140310226Y-64938937D01*
X140479744Y-65052205D01*
X140668102Y-65130226D01*
X140868061Y-65170000D01*
X141071939Y-65170000D01*
X141271898Y-65130226D01*
X141460256Y-65052205D01*
X141629774Y-64938937D01*
X141648711Y-64920000D01*
X146641289Y-64920000D01*
X146660226Y-64938937D01*
X146829744Y-65052205D01*
X147018102Y-65130226D01*
X147218061Y-65170000D01*
X147421939Y-65170000D01*
X147621898Y-65130226D01*
X147810256Y-65052205D01*
X147979774Y-64938937D01*
X147998711Y-64920000D01*
X152991289Y-64920000D01*
X153010226Y-64938937D01*
X153179744Y-65052205D01*
X153368102Y-65130226D01*
X153568061Y-65170000D01*
X153771939Y-65170000D01*
X153971898Y-65130226D01*
X154160256Y-65052205D01*
X154329774Y-64938937D01*
X154348711Y-64920000D01*
X159341289Y-64920000D01*
X159360226Y-64938937D01*
X159529744Y-65052205D01*
X159718102Y-65130226D01*
X159918061Y-65170000D01*
X160121939Y-65170000D01*
X160321898Y-65130226D01*
X160510256Y-65052205D01*
X160679774Y-64938937D01*
X160698711Y-64920000D01*
X165691289Y-64920000D01*
X165710226Y-64938937D01*
X165879744Y-65052205D01*
X166068102Y-65130226D01*
X166268061Y-65170000D01*
X166471939Y-65170000D01*
X166671898Y-65130226D01*
X166860256Y-65052205D01*
X167029774Y-64938937D01*
X167048711Y-64920000D01*
X172041289Y-64920000D01*
X172060226Y-64938937D01*
X172229744Y-65052205D01*
X172418102Y-65130226D01*
X172618061Y-65170000D01*
X172821939Y-65170000D01*
X173021898Y-65130226D01*
X173210256Y-65052205D01*
X173379774Y-64938937D01*
X173398711Y-64920000D01*
X179867928Y-64920000D01*
X179867928Y-65874000D01*
X179880188Y-65998482D01*
X179916498Y-66118180D01*
X179975463Y-66228494D01*
X180054815Y-66325185D01*
X180151506Y-66404537D01*
X180261820Y-66463502D01*
X180381518Y-66499812D01*
X180506000Y-66512072D01*
X182206000Y-66512072D01*
X182330482Y-66499812D01*
X182450180Y-66463502D01*
X182560494Y-66404537D01*
X182657185Y-66325185D01*
X182736537Y-66228494D01*
X182795502Y-66118180D01*
X182831812Y-65998482D01*
X182844072Y-65874000D01*
X182844072Y-64174000D01*
X182831812Y-64049518D01*
X182795502Y-63929820D01*
X182736537Y-63819506D01*
X182657185Y-63722815D01*
X182560494Y-63643463D01*
X182450180Y-63584498D01*
X182381313Y-63563607D01*
X182411134Y-63539134D01*
X182596706Y-63313014D01*
X182734599Y-63055034D01*
X182819513Y-62775111D01*
X182848185Y-62484000D01*
X182819513Y-62192889D01*
X182734599Y-61912966D01*
X182596706Y-61654986D01*
X182411134Y-61428866D01*
X182185014Y-61243294D01*
X182130209Y-61214000D01*
X182185014Y-61184706D01*
X182411134Y-60999134D01*
X182596706Y-60773014D01*
X182734599Y-60515034D01*
X182819513Y-60235111D01*
X182848185Y-59944000D01*
X182819513Y-59652889D01*
X182734599Y-59372966D01*
X182596706Y-59114986D01*
X182411134Y-58888866D01*
X182185014Y-58703294D01*
X182130209Y-58674000D01*
X182185014Y-58644706D01*
X182411134Y-58459134D01*
X182596706Y-58233014D01*
X182734599Y-57975034D01*
X182819513Y-57695111D01*
X182848185Y-57404000D01*
X182819513Y-57112889D01*
X182734599Y-56832966D01*
X182596706Y-56574986D01*
X182411134Y-56348866D01*
X182185014Y-56163294D01*
X182130209Y-56134000D01*
X182185014Y-56104706D01*
X182411134Y-55919134D01*
X182596706Y-55693014D01*
X182734599Y-55435034D01*
X182819513Y-55155111D01*
X182848185Y-54864000D01*
X182819513Y-54572889D01*
X182734599Y-54292966D01*
X182596706Y-54034986D01*
X182411134Y-53808866D01*
X182185014Y-53623294D01*
X182130209Y-53594000D01*
X182185014Y-53564706D01*
X182411134Y-53379134D01*
X182596706Y-53153014D01*
X182734599Y-52895034D01*
X182819513Y-52615111D01*
X182848185Y-52324000D01*
X182819513Y-52032889D01*
X182734599Y-51752966D01*
X182596706Y-51494986D01*
X182411134Y-51268866D01*
X182185014Y-51083294D01*
X181927034Y-50945401D01*
X181647111Y-50860487D01*
X181428950Y-50839000D01*
X181283050Y-50839000D01*
X181064889Y-50860487D01*
X181020692Y-50873894D01*
X180905233Y-50779138D01*
X180768860Y-50706246D01*
X180620887Y-50661359D01*
X180505561Y-50650000D01*
X180505553Y-50650000D01*
X180467000Y-50646203D01*
X180428447Y-50650000D01*
X173398711Y-50650000D01*
X173379774Y-50631063D01*
X173210256Y-50517795D01*
X173021898Y-50439774D01*
X172821939Y-50400000D01*
X172618061Y-50400000D01*
X172418102Y-50439774D01*
X172229744Y-50517795D01*
X172060226Y-50631063D01*
X172041289Y-50650000D01*
X170932157Y-50650000D01*
X171354816Y-50227341D01*
X171384764Y-50202764D01*
X171482862Y-50083233D01*
X171555754Y-49946860D01*
X171583993Y-49853768D01*
X171600641Y-49798888D01*
X171604059Y-49764188D01*
X171612000Y-49683561D01*
X171612000Y-49683554D01*
X171615797Y-49645001D01*
X171612000Y-49606448D01*
X171612000Y-48557711D01*
X171630937Y-48538774D01*
X171744205Y-48369256D01*
X171822226Y-48180898D01*
X171862000Y-47980939D01*
X171862000Y-47777061D01*
X171822226Y-47577102D01*
X171744205Y-47388744D01*
X171630937Y-47219226D01*
X171486774Y-47075063D01*
X171317256Y-46961795D01*
X171128898Y-46883774D01*
X170928939Y-46844000D01*
X170725061Y-46844000D01*
X170525102Y-46883774D01*
X170336744Y-46961795D01*
X170167226Y-47075063D01*
X170023063Y-47219226D01*
X169909795Y-47388744D01*
X169831774Y-47577102D01*
X169792000Y-47777061D01*
X169792000Y-47980939D01*
X169831774Y-48180898D01*
X169909795Y-48369256D01*
X170023063Y-48538774D01*
X170042001Y-48557712D01*
X170042000Y-49319842D01*
X169854843Y-49507000D01*
X167048711Y-49507000D01*
X167029774Y-49488063D01*
X166860256Y-49374795D01*
X166671898Y-49296774D01*
X166471939Y-49257000D01*
X166268061Y-49257000D01*
X166068102Y-49296774D01*
X165879744Y-49374795D01*
X165710226Y-49488063D01*
X165566063Y-49632226D01*
X165452795Y-49801744D01*
X165374774Y-49990102D01*
X165335000Y-50190061D01*
X165335000Y-50393939D01*
X165374774Y-50593898D01*
X165398012Y-50650000D01*
X160698711Y-50650000D01*
X160679774Y-50631063D01*
X160510256Y-50517795D01*
X160321898Y-50439774D01*
X160121939Y-50400000D01*
X159918061Y-50400000D01*
X159718102Y-50439774D01*
X159529744Y-50517795D01*
X159360226Y-50631063D01*
X159341289Y-50650000D01*
X154348711Y-50650000D01*
X154329774Y-50631063D01*
X154160256Y-50517795D01*
X153971898Y-50439774D01*
X153771939Y-50400000D01*
X153568061Y-50400000D01*
X153368102Y-50439774D01*
X153179744Y-50517795D01*
X153010226Y-50631063D01*
X152991289Y-50650000D01*
X147998711Y-50650000D01*
X147979774Y-50631063D01*
X147810256Y-50517795D01*
X147621898Y-50439774D01*
X147421939Y-50400000D01*
X147218061Y-50400000D01*
X147018102Y-50439774D01*
X146829744Y-50517795D01*
X146660226Y-50631063D01*
X146641289Y-50650000D01*
X141648711Y-50650000D01*
X141629774Y-50631063D01*
X141460256Y-50517795D01*
X141271898Y-50439774D01*
X141071939Y-50400000D01*
X140868061Y-50400000D01*
X140668102Y-50439774D01*
X140479744Y-50517795D01*
X140310226Y-50631063D01*
X140166063Y-50775226D01*
X140052795Y-50944744D01*
X139974774Y-51133102D01*
X139935000Y-51333061D01*
X139935000Y-51536939D01*
X139946628Y-51595399D01*
X134094154Y-51595399D01*
X134055601Y-51591602D01*
X134017048Y-51595399D01*
X134017040Y-51595399D01*
X133901714Y-51606758D01*
X133753741Y-51651645D01*
X133627000Y-51719389D01*
X133627000Y-48331157D01*
X135707158Y-46251000D01*
X136891916Y-46251000D01*
X136858140Y-46261246D01*
X136721767Y-46334138D01*
X136602236Y-46432236D01*
X136577655Y-46462188D01*
X134854190Y-48185653D01*
X134824236Y-48210236D01*
X134726138Y-48329768D01*
X134653246Y-48466141D01*
X134608359Y-48614114D01*
X134597000Y-48729440D01*
X134597000Y-48729447D01*
X134593203Y-48768000D01*
X134597000Y-48806553D01*
X134597001Y-49613288D01*
X134578063Y-49632226D01*
X134464795Y-49801744D01*
X134386774Y-49990102D01*
X134347000Y-50190061D01*
X134347000Y-50393939D01*
X134386774Y-50593898D01*
X134464795Y-50782256D01*
X134578063Y-50951774D01*
X134722226Y-51095937D01*
X134891744Y-51209205D01*
X135080102Y-51287226D01*
X135280061Y-51327000D01*
X135483939Y-51327000D01*
X135683898Y-51287226D01*
X135872256Y-51209205D01*
X136041774Y-51095937D01*
X136185937Y-50951774D01*
X136299205Y-50782256D01*
X136377226Y-50593898D01*
X136417000Y-50393939D01*
X136417000Y-50190061D01*
X136377226Y-49990102D01*
X136299205Y-49801744D01*
X136185937Y-49632226D01*
X136167000Y-49613289D01*
X136167000Y-49093157D01*
X137133643Y-48126514D01*
X155002000Y-48126514D01*
X155002000Y-48389486D01*
X155053304Y-48647405D01*
X155153939Y-48890359D01*
X155300038Y-49109013D01*
X155485987Y-49294962D01*
X155704641Y-49441061D01*
X155947595Y-49541696D01*
X156205514Y-49593000D01*
X156468486Y-49593000D01*
X156726405Y-49541696D01*
X156969359Y-49441061D01*
X157188013Y-49294962D01*
X157373962Y-49109013D01*
X157520061Y-48890359D01*
X157587000Y-48728754D01*
X157653939Y-48890359D01*
X157800038Y-49109013D01*
X157985987Y-49294962D01*
X158204641Y-49441061D01*
X158447595Y-49541696D01*
X158705514Y-49593000D01*
X158968486Y-49593000D01*
X159226405Y-49541696D01*
X159469359Y-49441061D01*
X159688013Y-49294962D01*
X159873962Y-49109013D01*
X160020061Y-48890359D01*
X160087000Y-48728754D01*
X160153939Y-48890359D01*
X160300038Y-49109013D01*
X160485987Y-49294962D01*
X160704641Y-49441061D01*
X160947595Y-49541696D01*
X161205514Y-49593000D01*
X161468486Y-49593000D01*
X161726405Y-49541696D01*
X161969359Y-49441061D01*
X162188013Y-49294962D01*
X162373962Y-49109013D01*
X162520061Y-48890359D01*
X162620696Y-48647405D01*
X162672000Y-48389486D01*
X162672000Y-48126514D01*
X162620696Y-47868595D01*
X162520061Y-47625641D01*
X162373962Y-47406987D01*
X162188013Y-47221038D01*
X161969359Y-47074939D01*
X161726405Y-46974304D01*
X161468486Y-46923000D01*
X161205514Y-46923000D01*
X160947595Y-46974304D01*
X160704641Y-47074939D01*
X160485987Y-47221038D01*
X160300038Y-47406987D01*
X160153939Y-47625641D01*
X160087000Y-47787246D01*
X160020061Y-47625641D01*
X159873962Y-47406987D01*
X159688013Y-47221038D01*
X159469359Y-47074939D01*
X159226405Y-46974304D01*
X158968486Y-46923000D01*
X158705514Y-46923000D01*
X158447595Y-46974304D01*
X158204641Y-47074939D01*
X157985987Y-47221038D01*
X157800038Y-47406987D01*
X157653939Y-47625641D01*
X157587000Y-47787246D01*
X157520061Y-47625641D01*
X157373962Y-47406987D01*
X157188013Y-47221038D01*
X156969359Y-47074939D01*
X156726405Y-46974304D01*
X156468486Y-46923000D01*
X156205514Y-46923000D01*
X155947595Y-46974304D01*
X155704641Y-47074939D01*
X155485987Y-47221038D01*
X155300038Y-47406987D01*
X155153939Y-47625641D01*
X155053304Y-47868595D01*
X155002000Y-48126514D01*
X137133643Y-48126514D01*
X137485157Y-47775000D01*
X150301762Y-47775000D01*
X150340315Y-47778797D01*
X150378868Y-47775000D01*
X150378876Y-47775000D01*
X150494202Y-47763641D01*
X150642175Y-47718754D01*
X150778548Y-47645862D01*
X150898079Y-47547764D01*
X150922662Y-47517810D01*
X150928345Y-47512127D01*
X151033602Y-47555726D01*
X151233561Y-47595500D01*
X151437439Y-47595500D01*
X151637398Y-47555726D01*
X151825756Y-47477705D01*
X151995274Y-47364437D01*
X152139437Y-47220274D01*
X152252705Y-47050756D01*
X152330726Y-46862398D01*
X152370500Y-46662439D01*
X152370500Y-46458561D01*
X152330726Y-46258602D01*
X152252705Y-46070244D01*
X152139437Y-45900726D01*
X151995274Y-45756563D01*
X151825756Y-45643295D01*
X151637398Y-45565274D01*
X151437439Y-45525500D01*
X151233561Y-45525500D01*
X151033602Y-45565274D01*
X150845244Y-45643295D01*
X150675726Y-45756563D01*
X150648654Y-45783635D01*
X150615928Y-45786858D01*
X150467955Y-45831746D01*
X150331582Y-45904638D01*
X150212051Y-46002736D01*
X150187464Y-46032695D01*
X150015159Y-46205000D01*
X146647711Y-46205000D01*
X146726937Y-46125774D01*
X146840205Y-45956256D01*
X146918226Y-45767898D01*
X146958000Y-45567939D01*
X146958000Y-45364061D01*
X146918226Y-45164102D01*
X146840205Y-44975744D01*
X146726937Y-44806226D01*
X146582774Y-44662063D01*
X146413256Y-44548795D01*
X146224898Y-44470774D01*
X146024939Y-44431000D01*
X145821061Y-44431000D01*
X145621102Y-44470774D01*
X145432744Y-44548795D01*
X145263226Y-44662063D01*
X145244289Y-44681000D01*
X135420552Y-44681000D01*
X135381999Y-44677203D01*
X135343446Y-44681000D01*
X135343439Y-44681000D01*
X135242490Y-44690943D01*
X135228112Y-44692359D01*
X135193672Y-44702806D01*
X135080140Y-44737246D01*
X134943767Y-44810138D01*
X134883559Y-44859550D01*
X134854187Y-44883655D01*
X134854184Y-44883658D01*
X134824236Y-44908236D01*
X134799658Y-44938184D01*
X132314190Y-47423653D01*
X132284236Y-47448236D01*
X132186138Y-47567768D01*
X132113246Y-47704141D01*
X132068359Y-47852114D01*
X132057000Y-47967440D01*
X132057000Y-47967447D01*
X132053203Y-48006000D01*
X132057000Y-48044553D01*
X132057001Y-52092328D01*
X131978400Y-52092328D01*
X131853918Y-52104588D01*
X131734220Y-52140898D01*
X131623906Y-52199863D01*
X131527215Y-52279215D01*
X131447863Y-52375906D01*
X131388898Y-52486220D01*
X131352588Y-52605918D01*
X131340328Y-52730400D01*
X131340328Y-54457600D01*
X131352588Y-54582082D01*
X131388898Y-54701780D01*
X131447863Y-54812094D01*
X131527215Y-54908785D01*
X131623906Y-54988137D01*
X131734220Y-55047102D01*
X131785265Y-55062586D01*
X131777203Y-55069203D01*
X131589931Y-55297394D01*
X131450775Y-55557736D01*
X131365084Y-55840223D01*
X131336149Y-56134000D01*
X129692000Y-56134000D01*
X129692000Y-44258000D01*
X154998928Y-44258000D01*
X154998928Y-45658000D01*
X155011188Y-45782482D01*
X155047498Y-45902180D01*
X155106463Y-46012494D01*
X155185815Y-46109185D01*
X155282506Y-46188537D01*
X155392820Y-46247502D01*
X155512518Y-46283812D01*
X155637000Y-46296072D01*
X157037000Y-46296072D01*
X157161482Y-46283812D01*
X157281180Y-46247502D01*
X157391494Y-46188537D01*
X157488185Y-46109185D01*
X157567537Y-46012494D01*
X157626502Y-45902180D01*
X157662812Y-45782482D01*
X157675072Y-45658000D01*
X157675072Y-45621987D01*
X157800038Y-45809013D01*
X157985987Y-45994962D01*
X158204641Y-46141061D01*
X158447595Y-46241696D01*
X158705514Y-46293000D01*
X158968486Y-46293000D01*
X159226405Y-46241696D01*
X159469359Y-46141061D01*
X159688013Y-45994962D01*
X159873962Y-45809013D01*
X160020061Y-45590359D01*
X160087000Y-45428754D01*
X160153939Y-45590359D01*
X160300038Y-45809013D01*
X160485987Y-45994962D01*
X160704641Y-46141061D01*
X160947595Y-46241696D01*
X161205514Y-46293000D01*
X161468486Y-46293000D01*
X161726405Y-46241696D01*
X161969359Y-46141061D01*
X162188013Y-45994962D01*
X162373962Y-45809013D01*
X162520061Y-45590359D01*
X162620696Y-45347405D01*
X162672000Y-45089486D01*
X162672000Y-44826514D01*
X162620696Y-44568595D01*
X162520061Y-44325641D01*
X162373962Y-44106987D01*
X162188013Y-43921038D01*
X161969359Y-43774939D01*
X161726405Y-43674304D01*
X161468486Y-43623000D01*
X161205514Y-43623000D01*
X160947595Y-43674304D01*
X160704641Y-43774939D01*
X160485987Y-43921038D01*
X160300038Y-44106987D01*
X160153939Y-44325641D01*
X160087000Y-44487246D01*
X160020061Y-44325641D01*
X159873962Y-44106987D01*
X159688013Y-43921038D01*
X159469359Y-43774939D01*
X159226405Y-43674304D01*
X158968486Y-43623000D01*
X158705514Y-43623000D01*
X158447595Y-43674304D01*
X158204641Y-43774939D01*
X157985987Y-43921038D01*
X157800038Y-44106987D01*
X157675072Y-44294013D01*
X157675072Y-44258000D01*
X157662812Y-44133518D01*
X157626502Y-44013820D01*
X157567537Y-43903506D01*
X157488185Y-43806815D01*
X157391494Y-43727463D01*
X157281180Y-43668498D01*
X157161482Y-43632188D01*
X157037000Y-43619928D01*
X155637000Y-43619928D01*
X155512518Y-43632188D01*
X155392820Y-43668498D01*
X155282506Y-43727463D01*
X155185815Y-43806815D01*
X155106463Y-43903506D01*
X155047498Y-44013820D01*
X155011188Y-44133518D01*
X154998928Y-44258000D01*
X129692000Y-44258000D01*
X129692000Y-43332000D01*
X188824000Y-43332000D01*
X188824001Y-74524000D01*
G36*
X140052795Y-59545256D02*
G01*
X140166063Y-59714774D01*
X140310226Y-59858937D01*
X140479744Y-59972205D01*
X140662728Y-60048000D01*
X139738556Y-60048000D01*
X139700000Y-60044203D01*
X139661444Y-60048000D01*
X139661439Y-60048000D01*
X139621026Y-60051980D01*
X139546113Y-60059358D01*
X139398140Y-60104246D01*
X139261767Y-60177138D01*
X139142236Y-60275236D01*
X139117653Y-60305190D01*
X137667444Y-61755399D01*
X136776147Y-61755399D01*
X136791222Y-61723814D01*
X136836958Y-61573026D01*
X136715817Y-61341000D01*
X135509000Y-61341000D01*
X135509000Y-61361000D01*
X135255000Y-61361000D01*
X135255000Y-61341000D01*
X135235000Y-61341000D01*
X135235000Y-61087000D01*
X135255000Y-61087000D01*
X135255000Y-61067000D01*
X135509000Y-61067000D01*
X135509000Y-61087000D01*
X136715817Y-61087000D01*
X136836958Y-60854974D01*
X136815855Y-60785399D01*
X138208048Y-60785399D01*
X138246601Y-60789196D01*
X138285154Y-60785399D01*
X138285162Y-60785399D01*
X138400488Y-60774040D01*
X138548461Y-60729153D01*
X138684834Y-60656261D01*
X138804365Y-60558163D01*
X138828948Y-60528209D01*
X139982239Y-59374919D01*
X140052795Y-59545256D01*
X140052795Y-59545256D01*
G37*
X140052795Y-59545256D02*
X140166063Y-59714774D01*
X140310226Y-59858937D01*
X140479744Y-59972205D01*
X140662728Y-60048000D01*
X139738556Y-60048000D01*
X139700000Y-60044203D01*
X139661444Y-60048000D01*
X139661439Y-60048000D01*
X139621026Y-60051980D01*
X139546113Y-60059358D01*
X139398140Y-60104246D01*
X139261767Y-60177138D01*
X139142236Y-60275236D01*
X139117653Y-60305190D01*
X137667444Y-61755399D01*
X136776147Y-61755399D01*
X136791222Y-61723814D01*
X136836958Y-61573026D01*
X136715817Y-61341000D01*
X135509000Y-61341000D01*
X135509000Y-61361000D01*
X135255000Y-61361000D01*
X135255000Y-61341000D01*
X135235000Y-61341000D01*
X135235000Y-61087000D01*
X135255000Y-61087000D01*
X135255000Y-61067000D01*
X135509000Y-61067000D01*
X135509000Y-61087000D01*
X136715817Y-61087000D01*
X136836958Y-60854974D01*
X136815855Y-60785399D01*
X138208048Y-60785399D01*
X138246601Y-60789196D01*
X138285154Y-60785399D01*
X138285162Y-60785399D01*
X138400488Y-60774040D01*
X138548461Y-60729153D01*
X138684834Y-60656261D01*
X138804365Y-60558163D01*
X138828948Y-60528209D01*
X139982239Y-59374919D01*
X140052795Y-59545256D01*
G36*
X139935000Y-56616939D02*
G01*
X139974774Y-56816898D01*
X140052795Y-57005256D01*
X140166063Y-57174774D01*
X140310226Y-57318937D01*
X140403110Y-57381000D01*
X140119555Y-57381000D01*
X140081000Y-57377203D01*
X140042444Y-57381000D01*
X140042439Y-57381000D01*
X140002026Y-57384980D01*
X139927113Y-57392358D01*
X139795758Y-57432205D01*
X139779140Y-57437246D01*
X139642767Y-57510138D01*
X139594196Y-57550000D01*
X139553187Y-57583655D01*
X139553184Y-57583658D01*
X139523236Y-57608236D01*
X139498658Y-57638184D01*
X137921444Y-59215399D01*
X136776147Y-59215399D01*
X136791222Y-59183814D01*
X136836958Y-59033026D01*
X136715817Y-58801000D01*
X135509000Y-58801000D01*
X135509000Y-58821000D01*
X135255000Y-58821000D01*
X135255000Y-58801000D01*
X135235000Y-58801000D01*
X135235000Y-58547000D01*
X135255000Y-58547000D01*
X135255000Y-58527000D01*
X135509000Y-58527000D01*
X135509000Y-58547000D01*
X136715817Y-58547000D01*
X136836958Y-58314974D01*
X136815855Y-58245399D01*
X137431846Y-58245399D01*
X137470399Y-58249196D01*
X137508952Y-58245399D01*
X137508960Y-58245399D01*
X137624286Y-58234040D01*
X137772259Y-58189153D01*
X137908632Y-58116261D01*
X138028163Y-58018163D01*
X138052746Y-57988209D01*
X139502955Y-56538000D01*
X139935000Y-56538000D01*
X139935000Y-56616939D01*
X139935000Y-56616939D01*
G37*
X139935000Y-56616939D02*
X139974774Y-56816898D01*
X140052795Y-57005256D01*
X140166063Y-57174774D01*
X140310226Y-57318937D01*
X140403110Y-57381000D01*
X140119555Y-57381000D01*
X140081000Y-57377203D01*
X140042444Y-57381000D01*
X140042439Y-57381000D01*
X140002026Y-57384980D01*
X139927113Y-57392358D01*
X139795758Y-57432205D01*
X139779140Y-57437246D01*
X139642767Y-57510138D01*
X139594196Y-57550000D01*
X139553187Y-57583655D01*
X139553184Y-57583658D01*
X139523236Y-57608236D01*
X139498658Y-57638184D01*
X137921444Y-59215399D01*
X136776147Y-59215399D01*
X136791222Y-59183814D01*
X136836958Y-59033026D01*
X136715817Y-58801000D01*
X135509000Y-58801000D01*
X135509000Y-58821000D01*
X135255000Y-58821000D01*
X135255000Y-58801000D01*
X135235000Y-58801000D01*
X135235000Y-58547000D01*
X135255000Y-58547000D01*
X135255000Y-58527000D01*
X135509000Y-58527000D01*
X135509000Y-58547000D01*
X136715817Y-58547000D01*
X136836958Y-58314974D01*
X136815855Y-58245399D01*
X137431846Y-58245399D01*
X137470399Y-58249196D01*
X137508952Y-58245399D01*
X137508960Y-58245399D01*
X137624286Y-58234040D01*
X137772259Y-58189153D01*
X137908632Y-58116261D01*
X138028163Y-58018163D01*
X138052746Y-57988209D01*
X139502955Y-56538000D01*
X139935000Y-56538000D01*
X139935000Y-56616939D01*
G36*
X140052795Y-54465256D02*
G01*
X140166063Y-54634774D01*
X140310226Y-54778937D01*
X140479744Y-54892205D01*
X140662728Y-54968000D01*
X139216354Y-54968000D01*
X139177798Y-54964203D01*
X139139242Y-54968000D01*
X139139237Y-54968000D01*
X139098824Y-54971980D01*
X139023911Y-54979358D01*
X138875938Y-55024246D01*
X138739565Y-55097138D01*
X138620034Y-55195236D01*
X138595451Y-55225190D01*
X137145242Y-56675399D01*
X136776147Y-56675399D01*
X136791222Y-56643814D01*
X136836958Y-56493026D01*
X136715817Y-56261000D01*
X135509000Y-56261000D01*
X135509000Y-56281000D01*
X135255000Y-56281000D01*
X135255000Y-56261000D01*
X135235000Y-56261000D01*
X135235000Y-56007000D01*
X135255000Y-56007000D01*
X135255000Y-55987000D01*
X135509000Y-55987000D01*
X135509000Y-56007000D01*
X136715817Y-56007000D01*
X136836958Y-55774974D01*
X136791222Y-55624186D01*
X136664684Y-55359056D01*
X136488854Y-55123707D01*
X136270488Y-54927183D01*
X136174090Y-54869863D01*
X136218606Y-54846069D01*
X136446797Y-54658797D01*
X136634069Y-54430606D01*
X136661653Y-54379000D01*
X140017066Y-54379000D01*
X140052795Y-54465256D01*
X140052795Y-54465256D01*
G37*
X140052795Y-54465256D02*
X140166063Y-54634774D01*
X140310226Y-54778937D01*
X140479744Y-54892205D01*
X140662728Y-54968000D01*
X139216354Y-54968000D01*
X139177798Y-54964203D01*
X139139242Y-54968000D01*
X139139237Y-54968000D01*
X139098824Y-54971980D01*
X139023911Y-54979358D01*
X138875938Y-55024246D01*
X138739565Y-55097138D01*
X138620034Y-55195236D01*
X138595451Y-55225190D01*
X137145242Y-56675399D01*
X136776147Y-56675399D01*
X136791222Y-56643814D01*
X136836958Y-56493026D01*
X136715817Y-56261000D01*
X135509000Y-56261000D01*
X135509000Y-56281000D01*
X135255000Y-56281000D01*
X135255000Y-56261000D01*
X135235000Y-56261000D01*
X135235000Y-56007000D01*
X135255000Y-56007000D01*
X135255000Y-55987000D01*
X135509000Y-55987000D01*
X135509000Y-56007000D01*
X136715817Y-56007000D01*
X136836958Y-55774974D01*
X136791222Y-55624186D01*
X136664684Y-55359056D01*
X136488854Y-55123707D01*
X136270488Y-54927183D01*
X136174090Y-54869863D01*
X136218606Y-54846069D01*
X136446797Y-54658797D01*
X136634069Y-54430606D01*
X136661653Y-54379000D01*
X140017066Y-54379000D01*
X140052795Y-54465256D01*
M02*
