G04 #@! TF.GenerationSoftware,KiCad,Pcbnew,(5.1.4)-1*
G04 #@! TF.CreationDate,2021-03-16T12:48:34+01:00*
G04 #@! TF.ProjectId,ISP_Adapter_V10,4953505f-4164-4617-9074-65725f563130,rev?*
G04 #@! TF.SameCoordinates,Original*
G04 #@! TF.FileFunction,Paste,Top*
G04 #@! TF.FilePolarity,Positive*
%FSLAX46Y46*%
G04 Gerber Fmt 4.6, Leading zero omitted, Abs format (unit mm)*
G04 Created by KiCad (PCBNEW (5.1.4)-1) date 2021-03-16 12:48:34*
%MOMM*%
%LPD*%
G04 APERTURE LIST*
%ADD10C,0.100000*%
%ADD11C,0.800000*%
%ADD12C,2.100000*%
%ADD13C,0.975000*%
G04 APERTURE END LIST*
D10*
G36*
X185147603Y-61399963D02*
G01*
X185167018Y-61402843D01*
X185186057Y-61407612D01*
X185204537Y-61414224D01*
X185222279Y-61422616D01*
X185239114Y-61432706D01*
X185254879Y-61444398D01*
X185269421Y-61457579D01*
X185282602Y-61472121D01*
X185294294Y-61487886D01*
X185304384Y-61504721D01*
X185312776Y-61522463D01*
X185319388Y-61540943D01*
X185324157Y-61559982D01*
X185327037Y-61579397D01*
X185328000Y-61599000D01*
X185328000Y-61999000D01*
X185327037Y-62018603D01*
X185324157Y-62038018D01*
X185319388Y-62057057D01*
X185312776Y-62075537D01*
X185304384Y-62093279D01*
X185294294Y-62110114D01*
X185282602Y-62125879D01*
X185269421Y-62140421D01*
X185254879Y-62153602D01*
X185239114Y-62165294D01*
X185222279Y-62175384D01*
X185204537Y-62183776D01*
X185186057Y-62190388D01*
X185167018Y-62195157D01*
X185147603Y-62198037D01*
X185128000Y-62199000D01*
X184228000Y-62199000D01*
X184208397Y-62198037D01*
X184188982Y-62195157D01*
X184169943Y-62190388D01*
X184151463Y-62183776D01*
X184133721Y-62175384D01*
X184116886Y-62165294D01*
X184101121Y-62153602D01*
X184086579Y-62140421D01*
X184073398Y-62125879D01*
X184061706Y-62110114D01*
X184051616Y-62093279D01*
X184043224Y-62075537D01*
X184036612Y-62057057D01*
X184031843Y-62038018D01*
X184028963Y-62018603D01*
X184028000Y-61999000D01*
X184028000Y-61599000D01*
X184028963Y-61579397D01*
X184031843Y-61559982D01*
X184036612Y-61540943D01*
X184043224Y-61522463D01*
X184051616Y-61504721D01*
X184061706Y-61487886D01*
X184073398Y-61472121D01*
X184086579Y-61457579D01*
X184101121Y-61444398D01*
X184116886Y-61432706D01*
X184133721Y-61422616D01*
X184151463Y-61414224D01*
X184169943Y-61407612D01*
X184188982Y-61402843D01*
X184208397Y-61399963D01*
X184228000Y-61399000D01*
X185128000Y-61399000D01*
X185147603Y-61399963D01*
X185147603Y-61399963D01*
G37*
D11*
X184678000Y-61799000D03*
D10*
G36*
X185147603Y-60149963D02*
G01*
X185167018Y-60152843D01*
X185186057Y-60157612D01*
X185204537Y-60164224D01*
X185222279Y-60172616D01*
X185239114Y-60182706D01*
X185254879Y-60194398D01*
X185269421Y-60207579D01*
X185282602Y-60222121D01*
X185294294Y-60237886D01*
X185304384Y-60254721D01*
X185312776Y-60272463D01*
X185319388Y-60290943D01*
X185324157Y-60309982D01*
X185327037Y-60329397D01*
X185328000Y-60349000D01*
X185328000Y-60749000D01*
X185327037Y-60768603D01*
X185324157Y-60788018D01*
X185319388Y-60807057D01*
X185312776Y-60825537D01*
X185304384Y-60843279D01*
X185294294Y-60860114D01*
X185282602Y-60875879D01*
X185269421Y-60890421D01*
X185254879Y-60903602D01*
X185239114Y-60915294D01*
X185222279Y-60925384D01*
X185204537Y-60933776D01*
X185186057Y-60940388D01*
X185167018Y-60945157D01*
X185147603Y-60948037D01*
X185128000Y-60949000D01*
X184228000Y-60949000D01*
X184208397Y-60948037D01*
X184188982Y-60945157D01*
X184169943Y-60940388D01*
X184151463Y-60933776D01*
X184133721Y-60925384D01*
X184116886Y-60915294D01*
X184101121Y-60903602D01*
X184086579Y-60890421D01*
X184073398Y-60875879D01*
X184061706Y-60860114D01*
X184051616Y-60843279D01*
X184043224Y-60825537D01*
X184036612Y-60807057D01*
X184031843Y-60788018D01*
X184028963Y-60768603D01*
X184028000Y-60749000D01*
X184028000Y-60349000D01*
X184028963Y-60329397D01*
X184031843Y-60309982D01*
X184036612Y-60290943D01*
X184043224Y-60272463D01*
X184051616Y-60254721D01*
X184061706Y-60237886D01*
X184073398Y-60222121D01*
X184086579Y-60207579D01*
X184101121Y-60194398D01*
X184116886Y-60182706D01*
X184133721Y-60172616D01*
X184151463Y-60164224D01*
X184169943Y-60157612D01*
X184188982Y-60152843D01*
X184208397Y-60149963D01*
X184228000Y-60149000D01*
X185128000Y-60149000D01*
X185147603Y-60149963D01*
X185147603Y-60149963D01*
G37*
D11*
X184678000Y-60549000D03*
D10*
G36*
X185147603Y-58899963D02*
G01*
X185167018Y-58902843D01*
X185186057Y-58907612D01*
X185204537Y-58914224D01*
X185222279Y-58922616D01*
X185239114Y-58932706D01*
X185254879Y-58944398D01*
X185269421Y-58957579D01*
X185282602Y-58972121D01*
X185294294Y-58987886D01*
X185304384Y-59004721D01*
X185312776Y-59022463D01*
X185319388Y-59040943D01*
X185324157Y-59059982D01*
X185327037Y-59079397D01*
X185328000Y-59099000D01*
X185328000Y-59499000D01*
X185327037Y-59518603D01*
X185324157Y-59538018D01*
X185319388Y-59557057D01*
X185312776Y-59575537D01*
X185304384Y-59593279D01*
X185294294Y-59610114D01*
X185282602Y-59625879D01*
X185269421Y-59640421D01*
X185254879Y-59653602D01*
X185239114Y-59665294D01*
X185222279Y-59675384D01*
X185204537Y-59683776D01*
X185186057Y-59690388D01*
X185167018Y-59695157D01*
X185147603Y-59698037D01*
X185128000Y-59699000D01*
X184228000Y-59699000D01*
X184208397Y-59698037D01*
X184188982Y-59695157D01*
X184169943Y-59690388D01*
X184151463Y-59683776D01*
X184133721Y-59675384D01*
X184116886Y-59665294D01*
X184101121Y-59653602D01*
X184086579Y-59640421D01*
X184073398Y-59625879D01*
X184061706Y-59610114D01*
X184051616Y-59593279D01*
X184043224Y-59575537D01*
X184036612Y-59557057D01*
X184031843Y-59538018D01*
X184028963Y-59518603D01*
X184028000Y-59499000D01*
X184028000Y-59099000D01*
X184028963Y-59079397D01*
X184031843Y-59059982D01*
X184036612Y-59040943D01*
X184043224Y-59022463D01*
X184051616Y-59004721D01*
X184061706Y-58987886D01*
X184073398Y-58972121D01*
X184086579Y-58957579D01*
X184101121Y-58944398D01*
X184116886Y-58932706D01*
X184133721Y-58922616D01*
X184151463Y-58914224D01*
X184169943Y-58907612D01*
X184188982Y-58902843D01*
X184208397Y-58899963D01*
X184228000Y-58899000D01*
X185128000Y-58899000D01*
X185147603Y-58899963D01*
X185147603Y-58899963D01*
G37*
D11*
X184678000Y-59299000D03*
D10*
G36*
X185147603Y-57649963D02*
G01*
X185167018Y-57652843D01*
X185186057Y-57657612D01*
X185204537Y-57664224D01*
X185222279Y-57672616D01*
X185239114Y-57682706D01*
X185254879Y-57694398D01*
X185269421Y-57707579D01*
X185282602Y-57722121D01*
X185294294Y-57737886D01*
X185304384Y-57754721D01*
X185312776Y-57772463D01*
X185319388Y-57790943D01*
X185324157Y-57809982D01*
X185327037Y-57829397D01*
X185328000Y-57849000D01*
X185328000Y-58249000D01*
X185327037Y-58268603D01*
X185324157Y-58288018D01*
X185319388Y-58307057D01*
X185312776Y-58325537D01*
X185304384Y-58343279D01*
X185294294Y-58360114D01*
X185282602Y-58375879D01*
X185269421Y-58390421D01*
X185254879Y-58403602D01*
X185239114Y-58415294D01*
X185222279Y-58425384D01*
X185204537Y-58433776D01*
X185186057Y-58440388D01*
X185167018Y-58445157D01*
X185147603Y-58448037D01*
X185128000Y-58449000D01*
X184228000Y-58449000D01*
X184208397Y-58448037D01*
X184188982Y-58445157D01*
X184169943Y-58440388D01*
X184151463Y-58433776D01*
X184133721Y-58425384D01*
X184116886Y-58415294D01*
X184101121Y-58403602D01*
X184086579Y-58390421D01*
X184073398Y-58375879D01*
X184061706Y-58360114D01*
X184051616Y-58343279D01*
X184043224Y-58325537D01*
X184036612Y-58307057D01*
X184031843Y-58288018D01*
X184028963Y-58268603D01*
X184028000Y-58249000D01*
X184028000Y-57849000D01*
X184028963Y-57829397D01*
X184031843Y-57809982D01*
X184036612Y-57790943D01*
X184043224Y-57772463D01*
X184051616Y-57754721D01*
X184061706Y-57737886D01*
X184073398Y-57722121D01*
X184086579Y-57707579D01*
X184101121Y-57694398D01*
X184116886Y-57682706D01*
X184133721Y-57672616D01*
X184151463Y-57664224D01*
X184169943Y-57657612D01*
X184188982Y-57652843D01*
X184208397Y-57649963D01*
X184228000Y-57649000D01*
X185128000Y-57649000D01*
X185147603Y-57649963D01*
X185147603Y-57649963D01*
G37*
D11*
X184678000Y-58049000D03*
D10*
G36*
X185147603Y-56399963D02*
G01*
X185167018Y-56402843D01*
X185186057Y-56407612D01*
X185204537Y-56414224D01*
X185222279Y-56422616D01*
X185239114Y-56432706D01*
X185254879Y-56444398D01*
X185269421Y-56457579D01*
X185282602Y-56472121D01*
X185294294Y-56487886D01*
X185304384Y-56504721D01*
X185312776Y-56522463D01*
X185319388Y-56540943D01*
X185324157Y-56559982D01*
X185327037Y-56579397D01*
X185328000Y-56599000D01*
X185328000Y-56999000D01*
X185327037Y-57018603D01*
X185324157Y-57038018D01*
X185319388Y-57057057D01*
X185312776Y-57075537D01*
X185304384Y-57093279D01*
X185294294Y-57110114D01*
X185282602Y-57125879D01*
X185269421Y-57140421D01*
X185254879Y-57153602D01*
X185239114Y-57165294D01*
X185222279Y-57175384D01*
X185204537Y-57183776D01*
X185186057Y-57190388D01*
X185167018Y-57195157D01*
X185147603Y-57198037D01*
X185128000Y-57199000D01*
X184228000Y-57199000D01*
X184208397Y-57198037D01*
X184188982Y-57195157D01*
X184169943Y-57190388D01*
X184151463Y-57183776D01*
X184133721Y-57175384D01*
X184116886Y-57165294D01*
X184101121Y-57153602D01*
X184086579Y-57140421D01*
X184073398Y-57125879D01*
X184061706Y-57110114D01*
X184051616Y-57093279D01*
X184043224Y-57075537D01*
X184036612Y-57057057D01*
X184031843Y-57038018D01*
X184028963Y-57018603D01*
X184028000Y-56999000D01*
X184028000Y-56599000D01*
X184028963Y-56579397D01*
X184031843Y-56559982D01*
X184036612Y-56540943D01*
X184043224Y-56522463D01*
X184051616Y-56504721D01*
X184061706Y-56487886D01*
X184073398Y-56472121D01*
X184086579Y-56457579D01*
X184101121Y-56444398D01*
X184116886Y-56432706D01*
X184133721Y-56422616D01*
X184151463Y-56414224D01*
X184169943Y-56407612D01*
X184188982Y-56402843D01*
X184208397Y-56399963D01*
X184228000Y-56399000D01*
X185128000Y-56399000D01*
X185147603Y-56399963D01*
X185147603Y-56399963D01*
G37*
D11*
X184678000Y-56799000D03*
D10*
G36*
X185147603Y-55149963D02*
G01*
X185167018Y-55152843D01*
X185186057Y-55157612D01*
X185204537Y-55164224D01*
X185222279Y-55172616D01*
X185239114Y-55182706D01*
X185254879Y-55194398D01*
X185269421Y-55207579D01*
X185282602Y-55222121D01*
X185294294Y-55237886D01*
X185304384Y-55254721D01*
X185312776Y-55272463D01*
X185319388Y-55290943D01*
X185324157Y-55309982D01*
X185327037Y-55329397D01*
X185328000Y-55349000D01*
X185328000Y-55749000D01*
X185327037Y-55768603D01*
X185324157Y-55788018D01*
X185319388Y-55807057D01*
X185312776Y-55825537D01*
X185304384Y-55843279D01*
X185294294Y-55860114D01*
X185282602Y-55875879D01*
X185269421Y-55890421D01*
X185254879Y-55903602D01*
X185239114Y-55915294D01*
X185222279Y-55925384D01*
X185204537Y-55933776D01*
X185186057Y-55940388D01*
X185167018Y-55945157D01*
X185147603Y-55948037D01*
X185128000Y-55949000D01*
X184228000Y-55949000D01*
X184208397Y-55948037D01*
X184188982Y-55945157D01*
X184169943Y-55940388D01*
X184151463Y-55933776D01*
X184133721Y-55925384D01*
X184116886Y-55915294D01*
X184101121Y-55903602D01*
X184086579Y-55890421D01*
X184073398Y-55875879D01*
X184061706Y-55860114D01*
X184051616Y-55843279D01*
X184043224Y-55825537D01*
X184036612Y-55807057D01*
X184031843Y-55788018D01*
X184028963Y-55768603D01*
X184028000Y-55749000D01*
X184028000Y-55349000D01*
X184028963Y-55329397D01*
X184031843Y-55309982D01*
X184036612Y-55290943D01*
X184043224Y-55272463D01*
X184051616Y-55254721D01*
X184061706Y-55237886D01*
X184073398Y-55222121D01*
X184086579Y-55207579D01*
X184101121Y-55194398D01*
X184116886Y-55182706D01*
X184133721Y-55172616D01*
X184151463Y-55164224D01*
X184169943Y-55157612D01*
X184188982Y-55152843D01*
X184208397Y-55149963D01*
X184228000Y-55149000D01*
X185128000Y-55149000D01*
X185147603Y-55149963D01*
X185147603Y-55149963D01*
G37*
D11*
X184678000Y-55549000D03*
D10*
G36*
X188702504Y-63300204D02*
G01*
X188726773Y-63303804D01*
X188750571Y-63309765D01*
X188773671Y-63318030D01*
X188795849Y-63328520D01*
X188816893Y-63341133D01*
X188836598Y-63355747D01*
X188854777Y-63372223D01*
X188871253Y-63390402D01*
X188885867Y-63410107D01*
X188898480Y-63431151D01*
X188908970Y-63453329D01*
X188917235Y-63476429D01*
X188923196Y-63500227D01*
X188926796Y-63524496D01*
X188928000Y-63549000D01*
X188928000Y-65149000D01*
X188926796Y-65173504D01*
X188923196Y-65197773D01*
X188917235Y-65221571D01*
X188908970Y-65244671D01*
X188898480Y-65266849D01*
X188885867Y-65287893D01*
X188871253Y-65307598D01*
X188854777Y-65325777D01*
X188836598Y-65342253D01*
X188816893Y-65356867D01*
X188795849Y-65369480D01*
X188773671Y-65379970D01*
X188750571Y-65388235D01*
X188726773Y-65394196D01*
X188702504Y-65397796D01*
X188678000Y-65399000D01*
X186178000Y-65399000D01*
X186153496Y-65397796D01*
X186129227Y-65394196D01*
X186105429Y-65388235D01*
X186082329Y-65379970D01*
X186060151Y-65369480D01*
X186039107Y-65356867D01*
X186019402Y-65342253D01*
X186001223Y-65325777D01*
X185984747Y-65307598D01*
X185970133Y-65287893D01*
X185957520Y-65266849D01*
X185947030Y-65244671D01*
X185938765Y-65221571D01*
X185932804Y-65197773D01*
X185929204Y-65173504D01*
X185928000Y-65149000D01*
X185928000Y-63549000D01*
X185929204Y-63524496D01*
X185932804Y-63500227D01*
X185938765Y-63476429D01*
X185947030Y-63453329D01*
X185957520Y-63431151D01*
X185970133Y-63410107D01*
X185984747Y-63390402D01*
X186001223Y-63372223D01*
X186019402Y-63355747D01*
X186039107Y-63341133D01*
X186060151Y-63328520D01*
X186082329Y-63318030D01*
X186105429Y-63309765D01*
X186129227Y-63303804D01*
X186153496Y-63300204D01*
X186178000Y-63299000D01*
X188678000Y-63299000D01*
X188702504Y-63300204D01*
X188702504Y-63300204D01*
G37*
D12*
X187428000Y-64349000D03*
D10*
G36*
X188702504Y-51950204D02*
G01*
X188726773Y-51953804D01*
X188750571Y-51959765D01*
X188773671Y-51968030D01*
X188795849Y-51978520D01*
X188816893Y-51991133D01*
X188836598Y-52005747D01*
X188854777Y-52022223D01*
X188871253Y-52040402D01*
X188885867Y-52060107D01*
X188898480Y-52081151D01*
X188908970Y-52103329D01*
X188917235Y-52126429D01*
X188923196Y-52150227D01*
X188926796Y-52174496D01*
X188928000Y-52199000D01*
X188928000Y-53799000D01*
X188926796Y-53823504D01*
X188923196Y-53847773D01*
X188917235Y-53871571D01*
X188908970Y-53894671D01*
X188898480Y-53916849D01*
X188885867Y-53937893D01*
X188871253Y-53957598D01*
X188854777Y-53975777D01*
X188836598Y-53992253D01*
X188816893Y-54006867D01*
X188795849Y-54019480D01*
X188773671Y-54029970D01*
X188750571Y-54038235D01*
X188726773Y-54044196D01*
X188702504Y-54047796D01*
X188678000Y-54049000D01*
X186178000Y-54049000D01*
X186153496Y-54047796D01*
X186129227Y-54044196D01*
X186105429Y-54038235D01*
X186082329Y-54029970D01*
X186060151Y-54019480D01*
X186039107Y-54006867D01*
X186019402Y-53992253D01*
X186001223Y-53975777D01*
X185984747Y-53957598D01*
X185970133Y-53937893D01*
X185957520Y-53916849D01*
X185947030Y-53894671D01*
X185938765Y-53871571D01*
X185932804Y-53847773D01*
X185929204Y-53823504D01*
X185928000Y-53799000D01*
X185928000Y-52199000D01*
X185929204Y-52174496D01*
X185932804Y-52150227D01*
X185938765Y-52126429D01*
X185947030Y-52103329D01*
X185957520Y-52081151D01*
X185970133Y-52060107D01*
X185984747Y-52040402D01*
X186001223Y-52022223D01*
X186019402Y-52005747D01*
X186039107Y-51991133D01*
X186060151Y-51978520D01*
X186082329Y-51968030D01*
X186105429Y-51959765D01*
X186129227Y-51953804D01*
X186153496Y-51950204D01*
X186178000Y-51949000D01*
X188678000Y-51949000D01*
X188702504Y-51950204D01*
X188702504Y-51950204D01*
G37*
D12*
X187428000Y-52999000D03*
D10*
G36*
X153478142Y-44259174D02*
G01*
X153501803Y-44262684D01*
X153525007Y-44268496D01*
X153547529Y-44276554D01*
X153569153Y-44286782D01*
X153589670Y-44299079D01*
X153608883Y-44313329D01*
X153626607Y-44329393D01*
X153642671Y-44347117D01*
X153656921Y-44366330D01*
X153669218Y-44386847D01*
X153679446Y-44408471D01*
X153687504Y-44430993D01*
X153693316Y-44454197D01*
X153696826Y-44477858D01*
X153698000Y-44501750D01*
X153698000Y-45414250D01*
X153696826Y-45438142D01*
X153693316Y-45461803D01*
X153687504Y-45485007D01*
X153679446Y-45507529D01*
X153669218Y-45529153D01*
X153656921Y-45549670D01*
X153642671Y-45568883D01*
X153626607Y-45586607D01*
X153608883Y-45602671D01*
X153589670Y-45616921D01*
X153569153Y-45629218D01*
X153547529Y-45639446D01*
X153525007Y-45647504D01*
X153501803Y-45653316D01*
X153478142Y-45656826D01*
X153454250Y-45658000D01*
X152966750Y-45658000D01*
X152942858Y-45656826D01*
X152919197Y-45653316D01*
X152895993Y-45647504D01*
X152873471Y-45639446D01*
X152851847Y-45629218D01*
X152831330Y-45616921D01*
X152812117Y-45602671D01*
X152794393Y-45586607D01*
X152778329Y-45568883D01*
X152764079Y-45549670D01*
X152751782Y-45529153D01*
X152741554Y-45507529D01*
X152733496Y-45485007D01*
X152727684Y-45461803D01*
X152724174Y-45438142D01*
X152723000Y-45414250D01*
X152723000Y-44501750D01*
X152724174Y-44477858D01*
X152727684Y-44454197D01*
X152733496Y-44430993D01*
X152741554Y-44408471D01*
X152751782Y-44386847D01*
X152764079Y-44366330D01*
X152778329Y-44347117D01*
X152794393Y-44329393D01*
X152812117Y-44313329D01*
X152831330Y-44299079D01*
X152851847Y-44286782D01*
X152873471Y-44276554D01*
X152895993Y-44268496D01*
X152919197Y-44262684D01*
X152942858Y-44259174D01*
X152966750Y-44258000D01*
X153454250Y-44258000D01*
X153478142Y-44259174D01*
X153478142Y-44259174D01*
G37*
D13*
X153210500Y-44958000D03*
D10*
G36*
X151603142Y-44259174D02*
G01*
X151626803Y-44262684D01*
X151650007Y-44268496D01*
X151672529Y-44276554D01*
X151694153Y-44286782D01*
X151714670Y-44299079D01*
X151733883Y-44313329D01*
X151751607Y-44329393D01*
X151767671Y-44347117D01*
X151781921Y-44366330D01*
X151794218Y-44386847D01*
X151804446Y-44408471D01*
X151812504Y-44430993D01*
X151818316Y-44454197D01*
X151821826Y-44477858D01*
X151823000Y-44501750D01*
X151823000Y-45414250D01*
X151821826Y-45438142D01*
X151818316Y-45461803D01*
X151812504Y-45485007D01*
X151804446Y-45507529D01*
X151794218Y-45529153D01*
X151781921Y-45549670D01*
X151767671Y-45568883D01*
X151751607Y-45586607D01*
X151733883Y-45602671D01*
X151714670Y-45616921D01*
X151694153Y-45629218D01*
X151672529Y-45639446D01*
X151650007Y-45647504D01*
X151626803Y-45653316D01*
X151603142Y-45656826D01*
X151579250Y-45658000D01*
X151091750Y-45658000D01*
X151067858Y-45656826D01*
X151044197Y-45653316D01*
X151020993Y-45647504D01*
X150998471Y-45639446D01*
X150976847Y-45629218D01*
X150956330Y-45616921D01*
X150937117Y-45602671D01*
X150919393Y-45586607D01*
X150903329Y-45568883D01*
X150889079Y-45549670D01*
X150876782Y-45529153D01*
X150866554Y-45507529D01*
X150858496Y-45485007D01*
X150852684Y-45461803D01*
X150849174Y-45438142D01*
X150848000Y-45414250D01*
X150848000Y-44501750D01*
X150849174Y-44477858D01*
X150852684Y-44454197D01*
X150858496Y-44430993D01*
X150866554Y-44408471D01*
X150876782Y-44386847D01*
X150889079Y-44366330D01*
X150903329Y-44347117D01*
X150919393Y-44329393D01*
X150937117Y-44313329D01*
X150956330Y-44299079D01*
X150976847Y-44286782D01*
X150998471Y-44276554D01*
X151020993Y-44268496D01*
X151044197Y-44262684D01*
X151067858Y-44259174D01*
X151091750Y-44258000D01*
X151579250Y-44258000D01*
X151603142Y-44259174D01*
X151603142Y-44259174D01*
G37*
D13*
X151335500Y-44958000D03*
D10*
G36*
X166686142Y-44259174D02*
G01*
X166709803Y-44262684D01*
X166733007Y-44268496D01*
X166755529Y-44276554D01*
X166777153Y-44286782D01*
X166797670Y-44299079D01*
X166816883Y-44313329D01*
X166834607Y-44329393D01*
X166850671Y-44347117D01*
X166864921Y-44366330D01*
X166877218Y-44386847D01*
X166887446Y-44408471D01*
X166895504Y-44430993D01*
X166901316Y-44454197D01*
X166904826Y-44477858D01*
X166906000Y-44501750D01*
X166906000Y-45414250D01*
X166904826Y-45438142D01*
X166901316Y-45461803D01*
X166895504Y-45485007D01*
X166887446Y-45507529D01*
X166877218Y-45529153D01*
X166864921Y-45549670D01*
X166850671Y-45568883D01*
X166834607Y-45586607D01*
X166816883Y-45602671D01*
X166797670Y-45616921D01*
X166777153Y-45629218D01*
X166755529Y-45639446D01*
X166733007Y-45647504D01*
X166709803Y-45653316D01*
X166686142Y-45656826D01*
X166662250Y-45658000D01*
X166174750Y-45658000D01*
X166150858Y-45656826D01*
X166127197Y-45653316D01*
X166103993Y-45647504D01*
X166081471Y-45639446D01*
X166059847Y-45629218D01*
X166039330Y-45616921D01*
X166020117Y-45602671D01*
X166002393Y-45586607D01*
X165986329Y-45568883D01*
X165972079Y-45549670D01*
X165959782Y-45529153D01*
X165949554Y-45507529D01*
X165941496Y-45485007D01*
X165935684Y-45461803D01*
X165932174Y-45438142D01*
X165931000Y-45414250D01*
X165931000Y-44501750D01*
X165932174Y-44477858D01*
X165935684Y-44454197D01*
X165941496Y-44430993D01*
X165949554Y-44408471D01*
X165959782Y-44386847D01*
X165972079Y-44366330D01*
X165986329Y-44347117D01*
X166002393Y-44329393D01*
X166020117Y-44313329D01*
X166039330Y-44299079D01*
X166059847Y-44286782D01*
X166081471Y-44276554D01*
X166103993Y-44268496D01*
X166127197Y-44262684D01*
X166150858Y-44259174D01*
X166174750Y-44258000D01*
X166662250Y-44258000D01*
X166686142Y-44259174D01*
X166686142Y-44259174D01*
G37*
D13*
X166418500Y-44958000D03*
D10*
G36*
X164811142Y-44259174D02*
G01*
X164834803Y-44262684D01*
X164858007Y-44268496D01*
X164880529Y-44276554D01*
X164902153Y-44286782D01*
X164922670Y-44299079D01*
X164941883Y-44313329D01*
X164959607Y-44329393D01*
X164975671Y-44347117D01*
X164989921Y-44366330D01*
X165002218Y-44386847D01*
X165012446Y-44408471D01*
X165020504Y-44430993D01*
X165026316Y-44454197D01*
X165029826Y-44477858D01*
X165031000Y-44501750D01*
X165031000Y-45414250D01*
X165029826Y-45438142D01*
X165026316Y-45461803D01*
X165020504Y-45485007D01*
X165012446Y-45507529D01*
X165002218Y-45529153D01*
X164989921Y-45549670D01*
X164975671Y-45568883D01*
X164959607Y-45586607D01*
X164941883Y-45602671D01*
X164922670Y-45616921D01*
X164902153Y-45629218D01*
X164880529Y-45639446D01*
X164858007Y-45647504D01*
X164834803Y-45653316D01*
X164811142Y-45656826D01*
X164787250Y-45658000D01*
X164299750Y-45658000D01*
X164275858Y-45656826D01*
X164252197Y-45653316D01*
X164228993Y-45647504D01*
X164206471Y-45639446D01*
X164184847Y-45629218D01*
X164164330Y-45616921D01*
X164145117Y-45602671D01*
X164127393Y-45586607D01*
X164111329Y-45568883D01*
X164097079Y-45549670D01*
X164084782Y-45529153D01*
X164074554Y-45507529D01*
X164066496Y-45485007D01*
X164060684Y-45461803D01*
X164057174Y-45438142D01*
X164056000Y-45414250D01*
X164056000Y-44501750D01*
X164057174Y-44477858D01*
X164060684Y-44454197D01*
X164066496Y-44430993D01*
X164074554Y-44408471D01*
X164084782Y-44386847D01*
X164097079Y-44366330D01*
X164111329Y-44347117D01*
X164127393Y-44329393D01*
X164145117Y-44313329D01*
X164164330Y-44299079D01*
X164184847Y-44286782D01*
X164206471Y-44276554D01*
X164228993Y-44268496D01*
X164252197Y-44262684D01*
X164275858Y-44259174D01*
X164299750Y-44258000D01*
X164787250Y-44258000D01*
X164811142Y-44259174D01*
X164811142Y-44259174D01*
G37*
D13*
X164543500Y-44958000D03*
D10*
G36*
X153478142Y-47561174D02*
G01*
X153501803Y-47564684D01*
X153525007Y-47570496D01*
X153547529Y-47578554D01*
X153569153Y-47588782D01*
X153589670Y-47601079D01*
X153608883Y-47615329D01*
X153626607Y-47631393D01*
X153642671Y-47649117D01*
X153656921Y-47668330D01*
X153669218Y-47688847D01*
X153679446Y-47710471D01*
X153687504Y-47732993D01*
X153693316Y-47756197D01*
X153696826Y-47779858D01*
X153698000Y-47803750D01*
X153698000Y-48716250D01*
X153696826Y-48740142D01*
X153693316Y-48763803D01*
X153687504Y-48787007D01*
X153679446Y-48809529D01*
X153669218Y-48831153D01*
X153656921Y-48851670D01*
X153642671Y-48870883D01*
X153626607Y-48888607D01*
X153608883Y-48904671D01*
X153589670Y-48918921D01*
X153569153Y-48931218D01*
X153547529Y-48941446D01*
X153525007Y-48949504D01*
X153501803Y-48955316D01*
X153478142Y-48958826D01*
X153454250Y-48960000D01*
X152966750Y-48960000D01*
X152942858Y-48958826D01*
X152919197Y-48955316D01*
X152895993Y-48949504D01*
X152873471Y-48941446D01*
X152851847Y-48931218D01*
X152831330Y-48918921D01*
X152812117Y-48904671D01*
X152794393Y-48888607D01*
X152778329Y-48870883D01*
X152764079Y-48851670D01*
X152751782Y-48831153D01*
X152741554Y-48809529D01*
X152733496Y-48787007D01*
X152727684Y-48763803D01*
X152724174Y-48740142D01*
X152723000Y-48716250D01*
X152723000Y-47803750D01*
X152724174Y-47779858D01*
X152727684Y-47756197D01*
X152733496Y-47732993D01*
X152741554Y-47710471D01*
X152751782Y-47688847D01*
X152764079Y-47668330D01*
X152778329Y-47649117D01*
X152794393Y-47631393D01*
X152812117Y-47615329D01*
X152831330Y-47601079D01*
X152851847Y-47588782D01*
X152873471Y-47578554D01*
X152895993Y-47570496D01*
X152919197Y-47564684D01*
X152942858Y-47561174D01*
X152966750Y-47560000D01*
X153454250Y-47560000D01*
X153478142Y-47561174D01*
X153478142Y-47561174D01*
G37*
D13*
X153210500Y-48260000D03*
D10*
G36*
X151603142Y-47561174D02*
G01*
X151626803Y-47564684D01*
X151650007Y-47570496D01*
X151672529Y-47578554D01*
X151694153Y-47588782D01*
X151714670Y-47601079D01*
X151733883Y-47615329D01*
X151751607Y-47631393D01*
X151767671Y-47649117D01*
X151781921Y-47668330D01*
X151794218Y-47688847D01*
X151804446Y-47710471D01*
X151812504Y-47732993D01*
X151818316Y-47756197D01*
X151821826Y-47779858D01*
X151823000Y-47803750D01*
X151823000Y-48716250D01*
X151821826Y-48740142D01*
X151818316Y-48763803D01*
X151812504Y-48787007D01*
X151804446Y-48809529D01*
X151794218Y-48831153D01*
X151781921Y-48851670D01*
X151767671Y-48870883D01*
X151751607Y-48888607D01*
X151733883Y-48904671D01*
X151714670Y-48918921D01*
X151694153Y-48931218D01*
X151672529Y-48941446D01*
X151650007Y-48949504D01*
X151626803Y-48955316D01*
X151603142Y-48958826D01*
X151579250Y-48960000D01*
X151091750Y-48960000D01*
X151067858Y-48958826D01*
X151044197Y-48955316D01*
X151020993Y-48949504D01*
X150998471Y-48941446D01*
X150976847Y-48931218D01*
X150956330Y-48918921D01*
X150937117Y-48904671D01*
X150919393Y-48888607D01*
X150903329Y-48870883D01*
X150889079Y-48851670D01*
X150876782Y-48831153D01*
X150866554Y-48809529D01*
X150858496Y-48787007D01*
X150852684Y-48763803D01*
X150849174Y-48740142D01*
X150848000Y-48716250D01*
X150848000Y-47803750D01*
X150849174Y-47779858D01*
X150852684Y-47756197D01*
X150858496Y-47732993D01*
X150866554Y-47710471D01*
X150876782Y-47688847D01*
X150889079Y-47668330D01*
X150903329Y-47649117D01*
X150919393Y-47631393D01*
X150937117Y-47615329D01*
X150956330Y-47601079D01*
X150976847Y-47588782D01*
X150998471Y-47578554D01*
X151020993Y-47570496D01*
X151044197Y-47564684D01*
X151067858Y-47561174D01*
X151091750Y-47560000D01*
X151579250Y-47560000D01*
X151603142Y-47561174D01*
X151603142Y-47561174D01*
G37*
D13*
X151335500Y-48260000D03*
D10*
G36*
X166686142Y-47561174D02*
G01*
X166709803Y-47564684D01*
X166733007Y-47570496D01*
X166755529Y-47578554D01*
X166777153Y-47588782D01*
X166797670Y-47601079D01*
X166816883Y-47615329D01*
X166834607Y-47631393D01*
X166850671Y-47649117D01*
X166864921Y-47668330D01*
X166877218Y-47688847D01*
X166887446Y-47710471D01*
X166895504Y-47732993D01*
X166901316Y-47756197D01*
X166904826Y-47779858D01*
X166906000Y-47803750D01*
X166906000Y-48716250D01*
X166904826Y-48740142D01*
X166901316Y-48763803D01*
X166895504Y-48787007D01*
X166887446Y-48809529D01*
X166877218Y-48831153D01*
X166864921Y-48851670D01*
X166850671Y-48870883D01*
X166834607Y-48888607D01*
X166816883Y-48904671D01*
X166797670Y-48918921D01*
X166777153Y-48931218D01*
X166755529Y-48941446D01*
X166733007Y-48949504D01*
X166709803Y-48955316D01*
X166686142Y-48958826D01*
X166662250Y-48960000D01*
X166174750Y-48960000D01*
X166150858Y-48958826D01*
X166127197Y-48955316D01*
X166103993Y-48949504D01*
X166081471Y-48941446D01*
X166059847Y-48931218D01*
X166039330Y-48918921D01*
X166020117Y-48904671D01*
X166002393Y-48888607D01*
X165986329Y-48870883D01*
X165972079Y-48851670D01*
X165959782Y-48831153D01*
X165949554Y-48809529D01*
X165941496Y-48787007D01*
X165935684Y-48763803D01*
X165932174Y-48740142D01*
X165931000Y-48716250D01*
X165931000Y-47803750D01*
X165932174Y-47779858D01*
X165935684Y-47756197D01*
X165941496Y-47732993D01*
X165949554Y-47710471D01*
X165959782Y-47688847D01*
X165972079Y-47668330D01*
X165986329Y-47649117D01*
X166002393Y-47631393D01*
X166020117Y-47615329D01*
X166039330Y-47601079D01*
X166059847Y-47588782D01*
X166081471Y-47578554D01*
X166103993Y-47570496D01*
X166127197Y-47564684D01*
X166150858Y-47561174D01*
X166174750Y-47560000D01*
X166662250Y-47560000D01*
X166686142Y-47561174D01*
X166686142Y-47561174D01*
G37*
D13*
X166418500Y-48260000D03*
D10*
G36*
X164811142Y-47561174D02*
G01*
X164834803Y-47564684D01*
X164858007Y-47570496D01*
X164880529Y-47578554D01*
X164902153Y-47588782D01*
X164922670Y-47601079D01*
X164941883Y-47615329D01*
X164959607Y-47631393D01*
X164975671Y-47649117D01*
X164989921Y-47668330D01*
X165002218Y-47688847D01*
X165012446Y-47710471D01*
X165020504Y-47732993D01*
X165026316Y-47756197D01*
X165029826Y-47779858D01*
X165031000Y-47803750D01*
X165031000Y-48716250D01*
X165029826Y-48740142D01*
X165026316Y-48763803D01*
X165020504Y-48787007D01*
X165012446Y-48809529D01*
X165002218Y-48831153D01*
X164989921Y-48851670D01*
X164975671Y-48870883D01*
X164959607Y-48888607D01*
X164941883Y-48904671D01*
X164922670Y-48918921D01*
X164902153Y-48931218D01*
X164880529Y-48941446D01*
X164858007Y-48949504D01*
X164834803Y-48955316D01*
X164811142Y-48958826D01*
X164787250Y-48960000D01*
X164299750Y-48960000D01*
X164275858Y-48958826D01*
X164252197Y-48955316D01*
X164228993Y-48949504D01*
X164206471Y-48941446D01*
X164184847Y-48931218D01*
X164164330Y-48918921D01*
X164145117Y-48904671D01*
X164127393Y-48888607D01*
X164111329Y-48870883D01*
X164097079Y-48851670D01*
X164084782Y-48831153D01*
X164074554Y-48809529D01*
X164066496Y-48787007D01*
X164060684Y-48763803D01*
X164057174Y-48740142D01*
X164056000Y-48716250D01*
X164056000Y-47803750D01*
X164057174Y-47779858D01*
X164060684Y-47756197D01*
X164066496Y-47732993D01*
X164074554Y-47710471D01*
X164084782Y-47688847D01*
X164097079Y-47668330D01*
X164111329Y-47649117D01*
X164127393Y-47631393D01*
X164145117Y-47615329D01*
X164164330Y-47601079D01*
X164184847Y-47588782D01*
X164206471Y-47578554D01*
X164228993Y-47570496D01*
X164252197Y-47564684D01*
X164275858Y-47561174D01*
X164299750Y-47560000D01*
X164787250Y-47560000D01*
X164811142Y-47561174D01*
X164811142Y-47561174D01*
G37*
D13*
X164543500Y-48260000D03*
D10*
G36*
X153605142Y-68643174D02*
G01*
X153628803Y-68646684D01*
X153652007Y-68652496D01*
X153674529Y-68660554D01*
X153696153Y-68670782D01*
X153716670Y-68683079D01*
X153735883Y-68697329D01*
X153753607Y-68713393D01*
X153769671Y-68731117D01*
X153783921Y-68750330D01*
X153796218Y-68770847D01*
X153806446Y-68792471D01*
X153814504Y-68814993D01*
X153820316Y-68838197D01*
X153823826Y-68861858D01*
X153825000Y-68885750D01*
X153825000Y-69798250D01*
X153823826Y-69822142D01*
X153820316Y-69845803D01*
X153814504Y-69869007D01*
X153806446Y-69891529D01*
X153796218Y-69913153D01*
X153783921Y-69933670D01*
X153769671Y-69952883D01*
X153753607Y-69970607D01*
X153735883Y-69986671D01*
X153716670Y-70000921D01*
X153696153Y-70013218D01*
X153674529Y-70023446D01*
X153652007Y-70031504D01*
X153628803Y-70037316D01*
X153605142Y-70040826D01*
X153581250Y-70042000D01*
X153093750Y-70042000D01*
X153069858Y-70040826D01*
X153046197Y-70037316D01*
X153022993Y-70031504D01*
X153000471Y-70023446D01*
X152978847Y-70013218D01*
X152958330Y-70000921D01*
X152939117Y-69986671D01*
X152921393Y-69970607D01*
X152905329Y-69952883D01*
X152891079Y-69933670D01*
X152878782Y-69913153D01*
X152868554Y-69891529D01*
X152860496Y-69869007D01*
X152854684Y-69845803D01*
X152851174Y-69822142D01*
X152850000Y-69798250D01*
X152850000Y-68885750D01*
X152851174Y-68861858D01*
X152854684Y-68838197D01*
X152860496Y-68814993D01*
X152868554Y-68792471D01*
X152878782Y-68770847D01*
X152891079Y-68750330D01*
X152905329Y-68731117D01*
X152921393Y-68713393D01*
X152939117Y-68697329D01*
X152958330Y-68683079D01*
X152978847Y-68670782D01*
X153000471Y-68660554D01*
X153022993Y-68652496D01*
X153046197Y-68646684D01*
X153069858Y-68643174D01*
X153093750Y-68642000D01*
X153581250Y-68642000D01*
X153605142Y-68643174D01*
X153605142Y-68643174D01*
G37*
D13*
X153337500Y-69342000D03*
D10*
G36*
X151730142Y-68643174D02*
G01*
X151753803Y-68646684D01*
X151777007Y-68652496D01*
X151799529Y-68660554D01*
X151821153Y-68670782D01*
X151841670Y-68683079D01*
X151860883Y-68697329D01*
X151878607Y-68713393D01*
X151894671Y-68731117D01*
X151908921Y-68750330D01*
X151921218Y-68770847D01*
X151931446Y-68792471D01*
X151939504Y-68814993D01*
X151945316Y-68838197D01*
X151948826Y-68861858D01*
X151950000Y-68885750D01*
X151950000Y-69798250D01*
X151948826Y-69822142D01*
X151945316Y-69845803D01*
X151939504Y-69869007D01*
X151931446Y-69891529D01*
X151921218Y-69913153D01*
X151908921Y-69933670D01*
X151894671Y-69952883D01*
X151878607Y-69970607D01*
X151860883Y-69986671D01*
X151841670Y-70000921D01*
X151821153Y-70013218D01*
X151799529Y-70023446D01*
X151777007Y-70031504D01*
X151753803Y-70037316D01*
X151730142Y-70040826D01*
X151706250Y-70042000D01*
X151218750Y-70042000D01*
X151194858Y-70040826D01*
X151171197Y-70037316D01*
X151147993Y-70031504D01*
X151125471Y-70023446D01*
X151103847Y-70013218D01*
X151083330Y-70000921D01*
X151064117Y-69986671D01*
X151046393Y-69970607D01*
X151030329Y-69952883D01*
X151016079Y-69933670D01*
X151003782Y-69913153D01*
X150993554Y-69891529D01*
X150985496Y-69869007D01*
X150979684Y-69845803D01*
X150976174Y-69822142D01*
X150975000Y-69798250D01*
X150975000Y-68885750D01*
X150976174Y-68861858D01*
X150979684Y-68838197D01*
X150985496Y-68814993D01*
X150993554Y-68792471D01*
X151003782Y-68770847D01*
X151016079Y-68750330D01*
X151030329Y-68731117D01*
X151046393Y-68713393D01*
X151064117Y-68697329D01*
X151083330Y-68683079D01*
X151103847Y-68670782D01*
X151125471Y-68660554D01*
X151147993Y-68652496D01*
X151171197Y-68646684D01*
X151194858Y-68643174D01*
X151218750Y-68642000D01*
X151706250Y-68642000D01*
X151730142Y-68643174D01*
X151730142Y-68643174D01*
G37*
D13*
X151462500Y-69342000D03*
D10*
G36*
X166813142Y-68643174D02*
G01*
X166836803Y-68646684D01*
X166860007Y-68652496D01*
X166882529Y-68660554D01*
X166904153Y-68670782D01*
X166924670Y-68683079D01*
X166943883Y-68697329D01*
X166961607Y-68713393D01*
X166977671Y-68731117D01*
X166991921Y-68750330D01*
X167004218Y-68770847D01*
X167014446Y-68792471D01*
X167022504Y-68814993D01*
X167028316Y-68838197D01*
X167031826Y-68861858D01*
X167033000Y-68885750D01*
X167033000Y-69798250D01*
X167031826Y-69822142D01*
X167028316Y-69845803D01*
X167022504Y-69869007D01*
X167014446Y-69891529D01*
X167004218Y-69913153D01*
X166991921Y-69933670D01*
X166977671Y-69952883D01*
X166961607Y-69970607D01*
X166943883Y-69986671D01*
X166924670Y-70000921D01*
X166904153Y-70013218D01*
X166882529Y-70023446D01*
X166860007Y-70031504D01*
X166836803Y-70037316D01*
X166813142Y-70040826D01*
X166789250Y-70042000D01*
X166301750Y-70042000D01*
X166277858Y-70040826D01*
X166254197Y-70037316D01*
X166230993Y-70031504D01*
X166208471Y-70023446D01*
X166186847Y-70013218D01*
X166166330Y-70000921D01*
X166147117Y-69986671D01*
X166129393Y-69970607D01*
X166113329Y-69952883D01*
X166099079Y-69933670D01*
X166086782Y-69913153D01*
X166076554Y-69891529D01*
X166068496Y-69869007D01*
X166062684Y-69845803D01*
X166059174Y-69822142D01*
X166058000Y-69798250D01*
X166058000Y-68885750D01*
X166059174Y-68861858D01*
X166062684Y-68838197D01*
X166068496Y-68814993D01*
X166076554Y-68792471D01*
X166086782Y-68770847D01*
X166099079Y-68750330D01*
X166113329Y-68731117D01*
X166129393Y-68713393D01*
X166147117Y-68697329D01*
X166166330Y-68683079D01*
X166186847Y-68670782D01*
X166208471Y-68660554D01*
X166230993Y-68652496D01*
X166254197Y-68646684D01*
X166277858Y-68643174D01*
X166301750Y-68642000D01*
X166789250Y-68642000D01*
X166813142Y-68643174D01*
X166813142Y-68643174D01*
G37*
D13*
X166545500Y-69342000D03*
D10*
G36*
X164938142Y-68643174D02*
G01*
X164961803Y-68646684D01*
X164985007Y-68652496D01*
X165007529Y-68660554D01*
X165029153Y-68670782D01*
X165049670Y-68683079D01*
X165068883Y-68697329D01*
X165086607Y-68713393D01*
X165102671Y-68731117D01*
X165116921Y-68750330D01*
X165129218Y-68770847D01*
X165139446Y-68792471D01*
X165147504Y-68814993D01*
X165153316Y-68838197D01*
X165156826Y-68861858D01*
X165158000Y-68885750D01*
X165158000Y-69798250D01*
X165156826Y-69822142D01*
X165153316Y-69845803D01*
X165147504Y-69869007D01*
X165139446Y-69891529D01*
X165129218Y-69913153D01*
X165116921Y-69933670D01*
X165102671Y-69952883D01*
X165086607Y-69970607D01*
X165068883Y-69986671D01*
X165049670Y-70000921D01*
X165029153Y-70013218D01*
X165007529Y-70023446D01*
X164985007Y-70031504D01*
X164961803Y-70037316D01*
X164938142Y-70040826D01*
X164914250Y-70042000D01*
X164426750Y-70042000D01*
X164402858Y-70040826D01*
X164379197Y-70037316D01*
X164355993Y-70031504D01*
X164333471Y-70023446D01*
X164311847Y-70013218D01*
X164291330Y-70000921D01*
X164272117Y-69986671D01*
X164254393Y-69970607D01*
X164238329Y-69952883D01*
X164224079Y-69933670D01*
X164211782Y-69913153D01*
X164201554Y-69891529D01*
X164193496Y-69869007D01*
X164187684Y-69845803D01*
X164184174Y-69822142D01*
X164183000Y-69798250D01*
X164183000Y-68885750D01*
X164184174Y-68861858D01*
X164187684Y-68838197D01*
X164193496Y-68814993D01*
X164201554Y-68792471D01*
X164211782Y-68770847D01*
X164224079Y-68750330D01*
X164238329Y-68731117D01*
X164254393Y-68713393D01*
X164272117Y-68697329D01*
X164291330Y-68683079D01*
X164311847Y-68670782D01*
X164333471Y-68660554D01*
X164355993Y-68652496D01*
X164379197Y-68646684D01*
X164402858Y-68643174D01*
X164426750Y-68642000D01*
X164914250Y-68642000D01*
X164938142Y-68643174D01*
X164938142Y-68643174D01*
G37*
D13*
X164670500Y-69342000D03*
D10*
G36*
X151730142Y-71945174D02*
G01*
X151753803Y-71948684D01*
X151777007Y-71954496D01*
X151799529Y-71962554D01*
X151821153Y-71972782D01*
X151841670Y-71985079D01*
X151860883Y-71999329D01*
X151878607Y-72015393D01*
X151894671Y-72033117D01*
X151908921Y-72052330D01*
X151921218Y-72072847D01*
X151931446Y-72094471D01*
X151939504Y-72116993D01*
X151945316Y-72140197D01*
X151948826Y-72163858D01*
X151950000Y-72187750D01*
X151950000Y-73100250D01*
X151948826Y-73124142D01*
X151945316Y-73147803D01*
X151939504Y-73171007D01*
X151931446Y-73193529D01*
X151921218Y-73215153D01*
X151908921Y-73235670D01*
X151894671Y-73254883D01*
X151878607Y-73272607D01*
X151860883Y-73288671D01*
X151841670Y-73302921D01*
X151821153Y-73315218D01*
X151799529Y-73325446D01*
X151777007Y-73333504D01*
X151753803Y-73339316D01*
X151730142Y-73342826D01*
X151706250Y-73344000D01*
X151218750Y-73344000D01*
X151194858Y-73342826D01*
X151171197Y-73339316D01*
X151147993Y-73333504D01*
X151125471Y-73325446D01*
X151103847Y-73315218D01*
X151083330Y-73302921D01*
X151064117Y-73288671D01*
X151046393Y-73272607D01*
X151030329Y-73254883D01*
X151016079Y-73235670D01*
X151003782Y-73215153D01*
X150993554Y-73193529D01*
X150985496Y-73171007D01*
X150979684Y-73147803D01*
X150976174Y-73124142D01*
X150975000Y-73100250D01*
X150975000Y-72187750D01*
X150976174Y-72163858D01*
X150979684Y-72140197D01*
X150985496Y-72116993D01*
X150993554Y-72094471D01*
X151003782Y-72072847D01*
X151016079Y-72052330D01*
X151030329Y-72033117D01*
X151046393Y-72015393D01*
X151064117Y-71999329D01*
X151083330Y-71985079D01*
X151103847Y-71972782D01*
X151125471Y-71962554D01*
X151147993Y-71954496D01*
X151171197Y-71948684D01*
X151194858Y-71945174D01*
X151218750Y-71944000D01*
X151706250Y-71944000D01*
X151730142Y-71945174D01*
X151730142Y-71945174D01*
G37*
D13*
X151462500Y-72644000D03*
D10*
G36*
X153605142Y-71945174D02*
G01*
X153628803Y-71948684D01*
X153652007Y-71954496D01*
X153674529Y-71962554D01*
X153696153Y-71972782D01*
X153716670Y-71985079D01*
X153735883Y-71999329D01*
X153753607Y-72015393D01*
X153769671Y-72033117D01*
X153783921Y-72052330D01*
X153796218Y-72072847D01*
X153806446Y-72094471D01*
X153814504Y-72116993D01*
X153820316Y-72140197D01*
X153823826Y-72163858D01*
X153825000Y-72187750D01*
X153825000Y-73100250D01*
X153823826Y-73124142D01*
X153820316Y-73147803D01*
X153814504Y-73171007D01*
X153806446Y-73193529D01*
X153796218Y-73215153D01*
X153783921Y-73235670D01*
X153769671Y-73254883D01*
X153753607Y-73272607D01*
X153735883Y-73288671D01*
X153716670Y-73302921D01*
X153696153Y-73315218D01*
X153674529Y-73325446D01*
X153652007Y-73333504D01*
X153628803Y-73339316D01*
X153605142Y-73342826D01*
X153581250Y-73344000D01*
X153093750Y-73344000D01*
X153069858Y-73342826D01*
X153046197Y-73339316D01*
X153022993Y-73333504D01*
X153000471Y-73325446D01*
X152978847Y-73315218D01*
X152958330Y-73302921D01*
X152939117Y-73288671D01*
X152921393Y-73272607D01*
X152905329Y-73254883D01*
X152891079Y-73235670D01*
X152878782Y-73215153D01*
X152868554Y-73193529D01*
X152860496Y-73171007D01*
X152854684Y-73147803D01*
X152851174Y-73124142D01*
X152850000Y-73100250D01*
X152850000Y-72187750D01*
X152851174Y-72163858D01*
X152854684Y-72140197D01*
X152860496Y-72116993D01*
X152868554Y-72094471D01*
X152878782Y-72072847D01*
X152891079Y-72052330D01*
X152905329Y-72033117D01*
X152921393Y-72015393D01*
X152939117Y-71999329D01*
X152958330Y-71985079D01*
X152978847Y-71972782D01*
X153000471Y-71962554D01*
X153022993Y-71954496D01*
X153046197Y-71948684D01*
X153069858Y-71945174D01*
X153093750Y-71944000D01*
X153581250Y-71944000D01*
X153605142Y-71945174D01*
X153605142Y-71945174D01*
G37*
D13*
X153337500Y-72644000D03*
D10*
G36*
X164938142Y-71945174D02*
G01*
X164961803Y-71948684D01*
X164985007Y-71954496D01*
X165007529Y-71962554D01*
X165029153Y-71972782D01*
X165049670Y-71985079D01*
X165068883Y-71999329D01*
X165086607Y-72015393D01*
X165102671Y-72033117D01*
X165116921Y-72052330D01*
X165129218Y-72072847D01*
X165139446Y-72094471D01*
X165147504Y-72116993D01*
X165153316Y-72140197D01*
X165156826Y-72163858D01*
X165158000Y-72187750D01*
X165158000Y-73100250D01*
X165156826Y-73124142D01*
X165153316Y-73147803D01*
X165147504Y-73171007D01*
X165139446Y-73193529D01*
X165129218Y-73215153D01*
X165116921Y-73235670D01*
X165102671Y-73254883D01*
X165086607Y-73272607D01*
X165068883Y-73288671D01*
X165049670Y-73302921D01*
X165029153Y-73315218D01*
X165007529Y-73325446D01*
X164985007Y-73333504D01*
X164961803Y-73339316D01*
X164938142Y-73342826D01*
X164914250Y-73344000D01*
X164426750Y-73344000D01*
X164402858Y-73342826D01*
X164379197Y-73339316D01*
X164355993Y-73333504D01*
X164333471Y-73325446D01*
X164311847Y-73315218D01*
X164291330Y-73302921D01*
X164272117Y-73288671D01*
X164254393Y-73272607D01*
X164238329Y-73254883D01*
X164224079Y-73235670D01*
X164211782Y-73215153D01*
X164201554Y-73193529D01*
X164193496Y-73171007D01*
X164187684Y-73147803D01*
X164184174Y-73124142D01*
X164183000Y-73100250D01*
X164183000Y-72187750D01*
X164184174Y-72163858D01*
X164187684Y-72140197D01*
X164193496Y-72116993D01*
X164201554Y-72094471D01*
X164211782Y-72072847D01*
X164224079Y-72052330D01*
X164238329Y-72033117D01*
X164254393Y-72015393D01*
X164272117Y-71999329D01*
X164291330Y-71985079D01*
X164311847Y-71972782D01*
X164333471Y-71962554D01*
X164355993Y-71954496D01*
X164379197Y-71948684D01*
X164402858Y-71945174D01*
X164426750Y-71944000D01*
X164914250Y-71944000D01*
X164938142Y-71945174D01*
X164938142Y-71945174D01*
G37*
D13*
X164670500Y-72644000D03*
D10*
G36*
X166813142Y-71945174D02*
G01*
X166836803Y-71948684D01*
X166860007Y-71954496D01*
X166882529Y-71962554D01*
X166904153Y-71972782D01*
X166924670Y-71985079D01*
X166943883Y-71999329D01*
X166961607Y-72015393D01*
X166977671Y-72033117D01*
X166991921Y-72052330D01*
X167004218Y-72072847D01*
X167014446Y-72094471D01*
X167022504Y-72116993D01*
X167028316Y-72140197D01*
X167031826Y-72163858D01*
X167033000Y-72187750D01*
X167033000Y-73100250D01*
X167031826Y-73124142D01*
X167028316Y-73147803D01*
X167022504Y-73171007D01*
X167014446Y-73193529D01*
X167004218Y-73215153D01*
X166991921Y-73235670D01*
X166977671Y-73254883D01*
X166961607Y-73272607D01*
X166943883Y-73288671D01*
X166924670Y-73302921D01*
X166904153Y-73315218D01*
X166882529Y-73325446D01*
X166860007Y-73333504D01*
X166836803Y-73339316D01*
X166813142Y-73342826D01*
X166789250Y-73344000D01*
X166301750Y-73344000D01*
X166277858Y-73342826D01*
X166254197Y-73339316D01*
X166230993Y-73333504D01*
X166208471Y-73325446D01*
X166186847Y-73315218D01*
X166166330Y-73302921D01*
X166147117Y-73288671D01*
X166129393Y-73272607D01*
X166113329Y-73254883D01*
X166099079Y-73235670D01*
X166086782Y-73215153D01*
X166076554Y-73193529D01*
X166068496Y-73171007D01*
X166062684Y-73147803D01*
X166059174Y-73124142D01*
X166058000Y-73100250D01*
X166058000Y-72187750D01*
X166059174Y-72163858D01*
X166062684Y-72140197D01*
X166068496Y-72116993D01*
X166076554Y-72094471D01*
X166086782Y-72072847D01*
X166099079Y-72052330D01*
X166113329Y-72033117D01*
X166129393Y-72015393D01*
X166147117Y-71999329D01*
X166166330Y-71985079D01*
X166186847Y-71972782D01*
X166208471Y-71962554D01*
X166230993Y-71954496D01*
X166254197Y-71948684D01*
X166277858Y-71945174D01*
X166301750Y-71944000D01*
X166789250Y-71944000D01*
X166813142Y-71945174D01*
X166813142Y-71945174D01*
G37*
D13*
X166545500Y-72644000D03*
D10*
G36*
X131664142Y-44259174D02*
G01*
X131687803Y-44262684D01*
X131711007Y-44268496D01*
X131733529Y-44276554D01*
X131755153Y-44286782D01*
X131775670Y-44299079D01*
X131794883Y-44313329D01*
X131812607Y-44329393D01*
X131828671Y-44347117D01*
X131842921Y-44366330D01*
X131855218Y-44386847D01*
X131865446Y-44408471D01*
X131873504Y-44430993D01*
X131879316Y-44454197D01*
X131882826Y-44477858D01*
X131884000Y-44501750D01*
X131884000Y-45414250D01*
X131882826Y-45438142D01*
X131879316Y-45461803D01*
X131873504Y-45485007D01*
X131865446Y-45507529D01*
X131855218Y-45529153D01*
X131842921Y-45549670D01*
X131828671Y-45568883D01*
X131812607Y-45586607D01*
X131794883Y-45602671D01*
X131775670Y-45616921D01*
X131755153Y-45629218D01*
X131733529Y-45639446D01*
X131711007Y-45647504D01*
X131687803Y-45653316D01*
X131664142Y-45656826D01*
X131640250Y-45658000D01*
X131152750Y-45658000D01*
X131128858Y-45656826D01*
X131105197Y-45653316D01*
X131081993Y-45647504D01*
X131059471Y-45639446D01*
X131037847Y-45629218D01*
X131017330Y-45616921D01*
X130998117Y-45602671D01*
X130980393Y-45586607D01*
X130964329Y-45568883D01*
X130950079Y-45549670D01*
X130937782Y-45529153D01*
X130927554Y-45507529D01*
X130919496Y-45485007D01*
X130913684Y-45461803D01*
X130910174Y-45438142D01*
X130909000Y-45414250D01*
X130909000Y-44501750D01*
X130910174Y-44477858D01*
X130913684Y-44454197D01*
X130919496Y-44430993D01*
X130927554Y-44408471D01*
X130937782Y-44386847D01*
X130950079Y-44366330D01*
X130964329Y-44347117D01*
X130980393Y-44329393D01*
X130998117Y-44313329D01*
X131017330Y-44299079D01*
X131037847Y-44286782D01*
X131059471Y-44276554D01*
X131081993Y-44268496D01*
X131105197Y-44262684D01*
X131128858Y-44259174D01*
X131152750Y-44258000D01*
X131640250Y-44258000D01*
X131664142Y-44259174D01*
X131664142Y-44259174D01*
G37*
D13*
X131396500Y-44958000D03*
D10*
G36*
X133539142Y-44259174D02*
G01*
X133562803Y-44262684D01*
X133586007Y-44268496D01*
X133608529Y-44276554D01*
X133630153Y-44286782D01*
X133650670Y-44299079D01*
X133669883Y-44313329D01*
X133687607Y-44329393D01*
X133703671Y-44347117D01*
X133717921Y-44366330D01*
X133730218Y-44386847D01*
X133740446Y-44408471D01*
X133748504Y-44430993D01*
X133754316Y-44454197D01*
X133757826Y-44477858D01*
X133759000Y-44501750D01*
X133759000Y-45414250D01*
X133757826Y-45438142D01*
X133754316Y-45461803D01*
X133748504Y-45485007D01*
X133740446Y-45507529D01*
X133730218Y-45529153D01*
X133717921Y-45549670D01*
X133703671Y-45568883D01*
X133687607Y-45586607D01*
X133669883Y-45602671D01*
X133650670Y-45616921D01*
X133630153Y-45629218D01*
X133608529Y-45639446D01*
X133586007Y-45647504D01*
X133562803Y-45653316D01*
X133539142Y-45656826D01*
X133515250Y-45658000D01*
X133027750Y-45658000D01*
X133003858Y-45656826D01*
X132980197Y-45653316D01*
X132956993Y-45647504D01*
X132934471Y-45639446D01*
X132912847Y-45629218D01*
X132892330Y-45616921D01*
X132873117Y-45602671D01*
X132855393Y-45586607D01*
X132839329Y-45568883D01*
X132825079Y-45549670D01*
X132812782Y-45529153D01*
X132802554Y-45507529D01*
X132794496Y-45485007D01*
X132788684Y-45461803D01*
X132785174Y-45438142D01*
X132784000Y-45414250D01*
X132784000Y-44501750D01*
X132785174Y-44477858D01*
X132788684Y-44454197D01*
X132794496Y-44430993D01*
X132802554Y-44408471D01*
X132812782Y-44386847D01*
X132825079Y-44366330D01*
X132839329Y-44347117D01*
X132855393Y-44329393D01*
X132873117Y-44313329D01*
X132892330Y-44299079D01*
X132912847Y-44286782D01*
X132934471Y-44276554D01*
X132956993Y-44268496D01*
X132980197Y-44262684D01*
X133003858Y-44259174D01*
X133027750Y-44258000D01*
X133515250Y-44258000D01*
X133539142Y-44259174D01*
X133539142Y-44259174D01*
G37*
D13*
X133271500Y-44958000D03*
D10*
G36*
X135601142Y-44259174D02*
G01*
X135624803Y-44262684D01*
X135648007Y-44268496D01*
X135670529Y-44276554D01*
X135692153Y-44286782D01*
X135712670Y-44299079D01*
X135731883Y-44313329D01*
X135749607Y-44329393D01*
X135765671Y-44347117D01*
X135779921Y-44366330D01*
X135792218Y-44386847D01*
X135802446Y-44408471D01*
X135810504Y-44430993D01*
X135816316Y-44454197D01*
X135819826Y-44477858D01*
X135821000Y-44501750D01*
X135821000Y-45414250D01*
X135819826Y-45438142D01*
X135816316Y-45461803D01*
X135810504Y-45485007D01*
X135802446Y-45507529D01*
X135792218Y-45529153D01*
X135779921Y-45549670D01*
X135765671Y-45568883D01*
X135749607Y-45586607D01*
X135731883Y-45602671D01*
X135712670Y-45616921D01*
X135692153Y-45629218D01*
X135670529Y-45639446D01*
X135648007Y-45647504D01*
X135624803Y-45653316D01*
X135601142Y-45656826D01*
X135577250Y-45658000D01*
X135089750Y-45658000D01*
X135065858Y-45656826D01*
X135042197Y-45653316D01*
X135018993Y-45647504D01*
X134996471Y-45639446D01*
X134974847Y-45629218D01*
X134954330Y-45616921D01*
X134935117Y-45602671D01*
X134917393Y-45586607D01*
X134901329Y-45568883D01*
X134887079Y-45549670D01*
X134874782Y-45529153D01*
X134864554Y-45507529D01*
X134856496Y-45485007D01*
X134850684Y-45461803D01*
X134847174Y-45438142D01*
X134846000Y-45414250D01*
X134846000Y-44501750D01*
X134847174Y-44477858D01*
X134850684Y-44454197D01*
X134856496Y-44430993D01*
X134864554Y-44408471D01*
X134874782Y-44386847D01*
X134887079Y-44366330D01*
X134901329Y-44347117D01*
X134917393Y-44329393D01*
X134935117Y-44313329D01*
X134954330Y-44299079D01*
X134974847Y-44286782D01*
X134996471Y-44276554D01*
X135018993Y-44268496D01*
X135042197Y-44262684D01*
X135065858Y-44259174D01*
X135089750Y-44258000D01*
X135577250Y-44258000D01*
X135601142Y-44259174D01*
X135601142Y-44259174D01*
G37*
D13*
X135333500Y-44958000D03*
D10*
G36*
X137476142Y-44259174D02*
G01*
X137499803Y-44262684D01*
X137523007Y-44268496D01*
X137545529Y-44276554D01*
X137567153Y-44286782D01*
X137587670Y-44299079D01*
X137606883Y-44313329D01*
X137624607Y-44329393D01*
X137640671Y-44347117D01*
X137654921Y-44366330D01*
X137667218Y-44386847D01*
X137677446Y-44408471D01*
X137685504Y-44430993D01*
X137691316Y-44454197D01*
X137694826Y-44477858D01*
X137696000Y-44501750D01*
X137696000Y-45414250D01*
X137694826Y-45438142D01*
X137691316Y-45461803D01*
X137685504Y-45485007D01*
X137677446Y-45507529D01*
X137667218Y-45529153D01*
X137654921Y-45549670D01*
X137640671Y-45568883D01*
X137624607Y-45586607D01*
X137606883Y-45602671D01*
X137587670Y-45616921D01*
X137567153Y-45629218D01*
X137545529Y-45639446D01*
X137523007Y-45647504D01*
X137499803Y-45653316D01*
X137476142Y-45656826D01*
X137452250Y-45658000D01*
X136964750Y-45658000D01*
X136940858Y-45656826D01*
X136917197Y-45653316D01*
X136893993Y-45647504D01*
X136871471Y-45639446D01*
X136849847Y-45629218D01*
X136829330Y-45616921D01*
X136810117Y-45602671D01*
X136792393Y-45586607D01*
X136776329Y-45568883D01*
X136762079Y-45549670D01*
X136749782Y-45529153D01*
X136739554Y-45507529D01*
X136731496Y-45485007D01*
X136725684Y-45461803D01*
X136722174Y-45438142D01*
X136721000Y-45414250D01*
X136721000Y-44501750D01*
X136722174Y-44477858D01*
X136725684Y-44454197D01*
X136731496Y-44430993D01*
X136739554Y-44408471D01*
X136749782Y-44386847D01*
X136762079Y-44366330D01*
X136776329Y-44347117D01*
X136792393Y-44329393D01*
X136810117Y-44313329D01*
X136829330Y-44299079D01*
X136849847Y-44286782D01*
X136871471Y-44276554D01*
X136893993Y-44268496D01*
X136917197Y-44262684D01*
X136940858Y-44259174D01*
X136964750Y-44258000D01*
X137452250Y-44258000D01*
X137476142Y-44259174D01*
X137476142Y-44259174D01*
G37*
D13*
X137208500Y-44958000D03*
M02*
