M48
; DRILL file {KiCad (5.1.4)-1} date 16.03.2021 12:48:42
; FORMAT={-:-/ absolute / metric / decimal}
; #@! TF.CreationDate,2021-03-16T12:48:42+01:00
; #@! TF.GenerationSoftware,Kicad,Pcbnew,(5.1.4)-1
; #@! TF.FileFunction,Plated,1,2,PTH
FMAT,2
METRIC
T1C0.400
T2C0.900
T3C1.000
T4C1.016
%
G90
G05
T1
X135.382Y-50.292
X140.97Y-51.435
X140.97Y-53.975
X140.97Y-56.515
X140.97Y-59.055
X140.97Y-61.595
X140.97Y-64.135
X143.637Y-70.739
X145.034Y-66.675
X145.161Y-53.213
X145.923Y-45.466
X146.05Y-60.833
X146.177Y-69.342
X147.32Y-51.435
X147.32Y-53.975
X147.32Y-56.515
X147.32Y-59.055
X147.32Y-61.595
X147.32Y-64.135
X149.987Y-66.675
X150.622Y-73.787
X150.749Y-70.993
X151.335Y-46.56
X151.511Y-58.293
X153.67Y-51.435
X153.67Y-53.975
X153.67Y-56.515
X153.67Y-59.055
X153.67Y-61.595
X153.67Y-64.135
X154.559Y-47.31
X157.734Y-67.564
X157.861Y-55.753
X160.02Y-51.435
X160.02Y-53.975
X160.02Y-56.515
X160.02Y-59.055
X160.02Y-61.595
X160.02Y-64.135
X162.687Y-66.675
X164.211Y-53.213
X166.243Y-70.993
X166.37Y-50.292
X166.37Y-51.435
X166.37Y-53.975
X166.37Y-56.515
X166.37Y-59.055
X166.37Y-61.595
X166.37Y-64.135
X166.418Y-46.56
X167.386Y-67.945
X167.386Y-70.993
X170.561Y-60.845
X170.827Y-47.879
X171.704Y-66.675
X172.72Y-51.435
X172.72Y-53.975
X172.72Y-56.515
X172.72Y-59.055
X172.72Y-61.595
X172.72Y-64.135
X174.244Y-69.215
X175.387Y-47.625
X175.387Y-69.215
T2
X156.337Y-44.958
X156.337Y-48.258
X158.837Y-44.958
X158.837Y-48.258
X161.337Y-44.958
X161.337Y-48.258
X156.464Y-69.342
X156.464Y-72.642
X158.964Y-69.342
X158.964Y-72.642
X161.464Y-69.342
X161.464Y-72.642
T3
X181.356Y-52.324
X181.356Y-54.864
X181.356Y-57.404
X181.356Y-59.944
X181.356Y-62.484
X181.356Y-65.024
T4
X132.842Y-53.594
X132.842Y-56.134
X132.842Y-58.674
X132.842Y-61.214
X132.842Y-63.754
X135.382Y-53.594
X135.382Y-56.134
X135.382Y-58.674
X135.382Y-61.214
X135.382Y-63.754
T0
M30
